<?xml version="1.0" encoding="utf-8"?>
<svg id="master-artboard" viewBox="0 0 400 400" version="1.1" xmlns="http://www.w3.org/2000/svg" x="0px" y="0px" width="400px" height="400px" enable-background="new 0 0 1400 980"><rect id="ee-background" x="0" y="0" width="400" height="400" style="fill: white; fill-opacity: 0; pointer-events: none;"/>
<path d="M 0 0 H 1400 V 980 H 0 V 0 Z" fill-rule="evenodd" clip-rule="evenodd" fill="#f1cec7" transform="matrix(1, 0, 0, 1, -277.31619530530077, -258.2729747041515)"/>
<path fill-rule="evenodd" clip-rule="evenodd" fill="#A38800" d="M253.1,325c4.4,0,7.9,3.5,7.9,7.9c0,4.3-3.5,7.9-7.9,7.9&#10;&#9;c-4.3,0-7.9-3.5-7.9-7.9C245.3,328.5,248.8,325,253.1,325L253.1,325z M282.6,303.5c0.9,0.9,0.9,2.5,0,3.4c-0.9,0.9-2.4,0.9-3.4,0&#10;&#9;c-0.9-0.9-0.9-2.5,0-3.4C280.1,302.5,281.6,302.5,282.6,303.5L282.6,303.5z M297.1,280.5L297.1,280.5c0.9,0.9,0.9,2.3,0,3.2&#10;&#9;l-9.4,9.4c-0.9,0.9-2.3,0.9-3.2,0l0,0c-0.9-0.9-0.9-2.3,0-3.2l9.4-9.4C294.8,279.6,296.2,279.6,297.1,280.5L297.1,280.5z&#10;&#9; M305.5,288.9L305.5,288.9c0.9,0.9,0.9,2.3,0,3.2l-9.4,9.5c-0.9,0.9-2.3,0.9-3.3,0l0,0c-0.9-0.9-0.9-2.3,0-3.3l9.4-9.4&#10;&#9;C303.2,288,304.7,288,305.5,288.9L305.5,288.9z M310.7,275.3c1.4,1.4,1.4,3.7,0,5.1c-1.4,1.4-3.7,1.4-5.1,0c-1.4-1.4-1.4-3.7,0-5.1&#10;&#9;C307,273.8,309.3,273.8,310.7,275.3L310.7,275.3z M294.7,332.9c0,1.3-1,2.4-2.4,2.4s-2.4-1.1-2.4-2.4c0-1.3,1.1-2.4,2.4-2.4&#10;&#9;S294.7,331.6,294.7,332.9L294.7,332.9z M321.3,327.5L321.3,327.5c0,1.3-1,2.5-2.3,2.5h-13.3c-1.3,0-2.3-1.2-2.3-2.5l0,0&#10;&#9;c0-1.3,1-2.5,2.3-2.5H319C320.3,325,321.3,326.3,321.3,327.5L321.3,327.5z M321.3,339.5L321.3,339.5c0,1.2-1,2.5-2.3,2.5h-13.3&#10;&#9;c-1.3,0-2.3-1.3-2.3-2.5l0,0c0-1.3,1-2.5,2.3-2.5H319C320.3,337,321.3,338.3,321.3,339.5L321.3,339.5z M334.6,332.9&#10;&#9;c0,2-1.6,3.6-3.6,3.6c-2,0-3.6-1.6-3.6-3.6c0-2,1.6-3.6,3.6-3.6C333,329.3,334.6,330.9,334.6,332.9L334.6,332.9z M282.6,362.3&#10;&#9;c-0.9,0.9-2.4,0.9-3.4,0c-0.9-0.9-0.9-2.5,0-3.4c0.9-0.9,2.4-0.9,3.4,0C283.5,359.9,283.5,361.4,282.6,362.3L282.6,362.3z&#10;&#9; M305.5,376.9L305.5,376.9c-0.9,0.9-2.3,0.9-3.2,0l-9.4-9.4c-0.9-0.9-0.9-2.3,0-3.2l0,0c0.9-0.9,2.3-0.9,3.3,0l9.4,9.4&#10;&#9;C306.4,374.5,306.4,376,305.5,376.9L305.5,376.9z M297.1,385.3L297.1,385.3c-0.9,0.9-2.3,0.9-3.3,0l-9.4-9.4c-0.9-0.9-0.9-2.3,0-3.2&#10;&#9;l0,0c0.9-0.9,2.3-0.9,3.2,0l9.4,9.4C298,382.9,298,384.4,297.1,385.3L297.1,385.3z M310.7,390.5c-1.4,1.4-3.7,1.4-5.1,0&#10;&#9;c-1.4-1.4-1.4-3.7,0-5.1c1.4-1.4,3.7-1.4,5.1,0C312.1,386.8,312.1,389.1,310.7,390.5L310.7,390.5z M253.1,374.5&#10;&#9;c-1.3,0-2.4-1.1-2.4-2.4s1.1-2.4,2.4-2.4c1.3,0,2.4,1.1,2.4,2.4S254.5,374.5,253.1,374.5L253.1,374.5z M258.5,401L258.5,401&#10;&#9;c-1.3,0-2.5-1-2.5-2.3v-13.3c0-1.2,1.2-2.3,2.5-2.3l0,0c1.3,0,2.5,1.1,2.5,2.3v13.3C261,400,259.8,401,258.5,401L258.5,401z&#10;&#9; M247,401L247,401c-1.3,0-2-1-2-2.3v-13.3c0-1.2,0.7-2.3,2-2.3l0,0c1.3,0,2,1.1,2,2.3v13.3C249,400,248.3,401,247,401L247,401z&#10;&#9; M253.1,414.4c-2,0-3.6-1.6-3.6-3.6c0-2,1.6-3.6,3.6-3.6c2,0,3.6,1.6,3.6,3.6C256.8,412.7,255.2,414.4,253.1,414.4L253.1,414.4z&#10;&#9; M223.7,362.3c-0.9-0.9-0.9-2.5,0-3.4c0.9-0.9,2.5-0.9,3.4,0c0.9,0.9,0.9,2.5,0,3.4C226.2,363.3,224.6,363.3,223.7,362.3&#10;&#9;L223.7,362.3z M209.2,385.3L209.2,385.3c-0.9-0.9-0.9-2.3,0-3.2l9.4-9.4c0.9-0.9,2.3-0.9,3.2,0l0,0c0.9,0.9,0.9,2.3,0,3.2l-9.4,9.4&#10;&#9;C211.5,386.2,210.1,386.2,209.2,385.3L209.2,385.3z M200.7,376.9L200.7,376.9c-0.9-0.9-0.9-2.3,0-3.2l9.4-9.4c0.9-0.9,2.3-0.9,3.2,0&#10;&#9;l0,0c0.9,0.9,0.9,2.3,0,3.2l-9.4,9.4C203.1,377.8,201.7,377.8,200.7,376.9L200.7,376.9z M195.6,390.5c-1.4-1.4-1.4-3.7,0-5.1&#10;&#9;c1.4-1.4,3.7-1.4,5.1,0c1.4,1.4,1.4,3.7,0,5.1C199.3,391.9,197,391.9,195.6,390.5L195.6,390.5z M211.5,332.9c0-1.3,1.1-2.4,2.4-2.4&#10;&#9;c1.3,0,2.4,1.1,2.4,2.4c0,1.3-1.1,2.4-2.4,2.4C212.6,335.3,211.5,334.2,211.5,332.9L211.5,332.9z M185,339.5L185,339.5&#10;&#9;c0-1.3,1-2.5,2.3-2.5h13.3c1.3,0,2.3,1.3,2.3,2.5l0,0c0,1.2-1,2.5-2.3,2.5h-13.3C186,342,185,340.7,185,339.5L185,339.5z M185,327.5&#10;&#9;L185,327.5c0-1.3,1-2.5,2.3-2.5h13.3c1.3,0,2.3,1.3,2.3,2.5l0,0c0,1.3-1,2.5-2.3,2.5h-13.3C186,330,185,328.8,185,327.5L185,327.5z&#10;&#9; M171.7,332.9c0-2,1.6-3.6,3.6-3.6c2,0,3.6,1.6,3.6,3.6c0,2-1.6,3.6-3.6,3.6C173.3,336.6,171.7,334.9,171.7,332.9L171.7,332.9z&#10;&#9; M223.7,303.5c0.9-0.9,2.5-0.9,3.4,0c0.9,0.9,0.9,2.5,0,3.4c-0.9,0.9-2.5,0.9-3.4,0C222.8,305.9,222.8,304.4,223.7,303.5&#10;&#9;L223.7,303.5z M200.7,288.9L200.7,288.9c0.9-0.9,2.3-0.9,3.3,0l9.4,9.4c0.9,0.9,0.9,2.3,0,3.3l0,0c-0.9,0.9-2.3,0.9-3.2,0l-9.4-9.5&#10;&#9;C199.9,291.2,199.9,289.8,200.7,288.9L200.7,288.9z M209.2,280.5L209.2,280.5c0.9-0.9,2.3-0.9,3.2,0l9.4,9.4c0.9,0.9,0.9,2.3,0,3.2&#10;&#9;l0,0c-0.9,0.9-2.3,0.9-3.2,0l-9.4-9.4C208.3,282.8,208.3,281.4,209.2,280.5L209.2,280.5z M195.6,275.3c1.4-1.4,3.7-1.4,5.1,0&#10;&#9;c1.4,1.4,1.4,3.7,0,5.1c-1.4,1.4-3.7,1.4-5.1,0C194.1,279,194.1,276.7,195.6,275.3L195.6,275.3z M253.1,291.2c1.3,0,2.4,1.1,2.4,2.4&#10;&#9;c0,1.3-1.1,2.4-2.4,2.4c-1.3,0-2.4-1.1-2.4-2.4C250.7,292.3,251.8,291.2,253.1,291.2L253.1,291.2z M247,264.7L247,264.7&#10;&#9;c1.3,0,2,1,2,2.3v13.3c0,1.3-0.7,2.3-2,2.3l0,0c-1.3,0-2-1-2-2.3V267C245,265.8,245.7,264.7,247,264.7L247,264.7z M258.5,264.7&#10;&#9;L258.5,264.7c1.3,0,2.5,1,2.5,2.3v13.3c0,1.3-1.2,2.3-2.5,2.3l0,0c-1.3,0-2.5-1-2.5-2.3V267C256,265.8,257.2,264.7,258.5,264.7&#10;&#9;L258.5,264.7z M253.1,251.4c2,0,3.6,1.6,3.6,3.6c0,2-1.6,3.6-3.6,3.6c-2,0-3.6-1.6-3.6-3.6C249.5,253.1,251.1,251.4,253.1,251.4&#10;&#9;L253.1,251.4z M281,265.5c3.4,1.4,4.9,5.2,3.6,8.5c-1.4,3.3-5.2,4.9-8.6,3.5c-3.3-1.4-4.9-5.2-3.5-8.5&#10;&#9;C273.9,265.7,277.7,264.1,281,265.5L281,265.5z M287.9,249c4,1.7,5.9,6.3,4.3,10.3c-1.7,4-6.3,5.9-10.3,4.3c-4-1.7-5.9-6.3-4.3-10.3&#10;&#9;C279.2,249.3,283.8,247.3,287.9,249L287.9,249z M274.2,282c2.7,1.1,3.9,4.1,2.8,6.8c-1.1,2.6-4.1,3.9-6.8,2.8&#10;&#9;c-2.7-1.1-3.9-4.1-2.8-6.8C268.5,282.2,271.6,280.9,274.2,282L274.2,282z M267.4,298.5c2,0.8,2.9,3,2.1,5c-0.8,2-3,2.9-5,2.1&#10;&#9;c-1.9-0.8-2.9-3-2.1-5C263.2,298.6,265.4,297.7,267.4,298.5L267.4,298.5z M260.6,315c1.3,0.5,1.9,2,1.3,3.3c-0.5,1.3-2,1.9-3.2,1.3&#10;&#9;c-1.3-0.5-1.9-2-1.3-3.2C257.8,315.1,259.3,314.5,260.6,315L260.6,315z M320.5,305c1.4,3.4-0.2,7.2-3.5,8.5&#10;&#9;c-3.4,1.4-7.2-0.2-8.5-3.5c-1.4-3.3,0.2-7.1,3.5-8.5C315.3,300.1,319.1,301.6,320.5,305L320.5,305z M337,298.1&#10;&#9;c1.7,4-0.2,8.6-4.3,10.3c-4,1.7-8.6-0.2-10.3-4.3c-1.6-4,0.2-8.6,4.3-10.3C330.7,292.2,335.3,294.1,337,298.1L337,298.1z M304,311.8&#10;&#9;c1.1,2.6-0.2,5.7-2.8,6.8c-2.7,1.1-5.7-0.1-6.8-2.8c-1.1-2.7,0.2-5.7,2.8-6.8C299.9,307.9,302.9,309.2,304,311.8L304,311.8z&#10;&#9; M287.5,318.7c0.8,2-0.1,4.2-2.1,5c-1.9,0.8-4.2-0.1-5-2.1c-0.8-1.9,0.1-4.2,2.1-5C284.5,315.8,286.7,316.7,287.5,318.7L287.5,318.7&#10;&#9;z M271.1,325.5c0.5,1.3-0.1,2.7-1.4,3.2c-1.3,0.5-2.7-0.1-3.2-1.3c-0.5-1.3,0.1-2.7,1.3-3.2C269.1,323.6,270.5,324.2,271.1,325.5&#10;&#9;L271.1,325.5z M320.5,360.8c-1.4,3.3-5.2,4.9-8.5,3.5c-3.4-1.4-4.9-5.2-3.5-8.5c1.4-3.3,5.2-4.9,8.5-3.5&#10;&#9;C320.3,353.6,321.9,357.5,320.5,360.8L320.5,360.8z M337,367.6c-1.7,4-6.3,6-10.3,4.3c-4-1.7-5.9-6.3-4.3-10.3&#10;&#9;c1.7-4,6.3-5.9,10.3-4.3C336.7,359,338.7,363.6,337,367.6L337,367.6z M304,354c-1.1,2.6-4.1,3.9-6.8,2.8c-2.6-1.1-3.9-4.1-2.8-6.8&#10;&#9;c1.1-2.6,4.1-3.9,6.8-2.8C303.8,348.3,305.1,351.3,304,354L304,354z M287.5,347.2c-0.8,1.9-3.1,2.9-5,2.1c-2-0.8-2.9-3-2.1-5&#10;&#9;c0.8-2,3.1-2.9,5-2.1C287.4,343,288.3,345.2,287.5,347.2L287.5,347.2z M271.1,340.3c-0.5,1.3-2,1.9-3.3,1.4c-1.3-0.5-1.9-2-1.3-3.3&#10;&#9;c0.5-1.3,2-1.9,3.2-1.3C271,337.6,271.5,339,271.1,340.3L271.1,340.3z M281,400.3c-3.3,1.4-7.1-0.2-8.5-3.5&#10;&#9;c-1.4-3.3,0.2-7.1,3.5-8.5c3.4-1.4,7.2,0.2,8.5,3.5C286,395.1,284.4,398.9,281,400.3L281,400.3z M287.9,416.8&#10;&#9;c-4.1,1.7-8.6-0.2-10.3-4.3c-1.7-4,0.2-8.6,4.3-10.3c4-1.7,8.6,0.2,10.3,4.3C293.8,410.5,291.9,415.1,287.9,416.8L287.9,416.8z&#10;&#9; M274.2,383.8c-2.6,1.1-5.7-0.1-6.8-2.8c-1.1-2.7,0.1-5.7,2.8-6.8c2.6-1.1,5.7,0.2,6.8,2.8C278.1,379.7,276.9,382.7,274.2,383.8&#10;&#9;L274.2,383.8z M267.4,367.3c-2,0.8-4.2-0.1-5-2.1c-0.8-2,0.1-4.2,2.1-5c2-0.8,4.2,0.1,5,2.1C270.3,364.2,269.3,366.5,267.4,367.3&#10;&#9;L267.4,367.3z M260.6,350.8c-1.3,0.5-2.7-0.1-3.2-1.3c-0.5-1.3,0.1-2.7,1.3-3.3c1.3-0.5,2.7,0.1,3.2,1.3&#10;&#9;C262.4,348.8,261.8,350.3,260.6,350.8L260.6,350.8z M225.2,400.3c-3.3-1.4-4.9-5.2-3.5-8.5c1.4-3.3,5.2-4.9,8.5-3.5&#10;&#9;c3.3,1.4,4.9,5.2,3.5,8.5C232.4,400.1,228.6,401.7,225.2,400.3L225.2,400.3z M218.4,416.8c-4-1.6-5.9-6.3-4.3-10.3&#10;&#9;c1.6-4,6.3-6,10.3-4.3c4,1.6,5.9,6.3,4.3,10.3C227.1,416.5,222.4,418.4,218.4,416.8L218.4,416.8z M232.1,383.8&#10;&#9;c-2.6-1.1-3.9-4.1-2.8-6.8c1.1-2.7,4.1-3.9,6.8-2.8c2.6,1.1,3.9,4.1,2.8,6.8C237.7,383.6,234.7,384.9,232.1,383.8L232.1,383.8z&#10;&#9; M238.9,367.3c-2-0.8-2.9-3-2.1-5c0.8-2,3-2.9,5-2.1c2,0.8,2.9,3,2.1,5C243.1,367.2,240.9,368.1,238.9,367.3L238.9,367.3z&#10;&#9; M245.7,350.8c-1.3-0.5-1.9-2-1.3-3.3c0.5-1.3,2-1.9,3.3-1.3c1.3,0.5,1.9,2,1.3,3.3C248.4,350.7,247,351.3,245.7,350.8L245.7,350.8z&#10;&#9; M185.8,360.8c-1.4-3.3,0.2-7.2,3.5-8.5c3.3-1.4,7.1,0.2,8.5,3.5c1.4,3.3-0.2,7.1-3.5,8.5C191,365.7,187.2,364.1,185.8,360.8&#10;&#9;L185.8,360.8z M169.3,367.6c-1.6-4,0.2-8.6,4.3-10.3c4-1.6,8.6,0.2,10.3,4.3c1.7,4-0.2,8.6-4.3,10.3&#10;&#9;C175.6,373.6,171,371.7,169.3,367.6L169.3,367.6z M202.3,354c-1.1-2.7,0.1-5.7,2.8-6.8c2.6-1.1,5.7,0.2,6.8,2.8&#10;&#9;c1.1,2.7-0.1,5.7-2.8,6.8C206.4,357.9,203.4,356.6,202.3,354L202.3,354z M218.8,347.2c-0.8-2,0.1-4.2,2.1-5c2-0.8,4.2,0.1,5,2.1&#10;&#9;c0.8,2-0.1,4.2-2.1,5C221.8,350,219.6,349.1,218.8,347.2L218.8,347.2z M235.3,340.3c-0.5-1.3,0.1-2.7,1.3-3.2&#10;&#9;c1.3-0.5,2.7,0.1,3.3,1.3c0.5,1.3-0.1,2.7-1.4,3.3C237.2,342.2,235.8,341.6,235.3,340.3L235.3,340.3z M185.8,305&#10;&#9;c1.4-3.3,5.2-4.9,8.5-3.5c3.3,1.4,4.9,5.2,3.5,8.5c-1.4,3.4-5.2,4.9-8.5,3.5C186,312.2,184.4,308.3,185.8,305L185.8,305z&#10;&#9; M169.3,298.1c1.7-4,6.3-5.9,10.3-4.3c4,1.7,5.9,6.3,4.3,10.3c-1.7,4-6.3,6-10.3,4.3C169.5,306.8,167.6,302.2,169.3,298.1&#10;&#9;L169.3,298.1z M202.3,311.8c1.1-2.7,4.1-3.9,6.8-2.8c2.7,1.1,3.9,4.1,2.8,6.8c-1.1,2.7-4.1,3.9-6.8,2.8&#10;&#9;C202.4,317.5,201.2,314.5,202.3,311.8L202.3,311.8z M218.8,318.7c0.8-2,3-2.9,5-2.1c2,0.8,2.9,3.1,2.1,5c-0.8,2-3,2.9-5,2.1&#10;&#9;C218.9,322.9,218,320.6,218.8,318.7L218.8,318.7z M235.3,325.5c0.5-1.3,2-1.9,3.2-1.3c1.3,0.5,1.9,2,1.4,3.2c-0.5,1.3-2,1.9-3.3,1.3&#10;&#9;C235.3,328.2,234.7,326.7,235.3,325.5L235.3,325.5z M225.2,265.5c3.3-1.4,7.2,0.2,8.5,3.5c1.4,3.3-0.2,7.2-3.5,8.5&#10;&#9;c-3.3,1.4-7.2-0.2-8.5-3.5C220.3,270.7,221.9,266.9,225.2,265.5L225.2,265.5z M218.4,249c4-1.7,8.6,0.2,10.3,4.3&#10;&#9;c1.7,4-0.2,8.6-4.3,10.3c-4,1.6-8.6-0.2-10.3-4.3C212.5,255.3,214.4,250.7,218.4,249L218.4,249z M232.1,282c2.7-1.1,5.7,0.2,6.8,2.8&#10;&#9;c1.1,2.7-0.2,5.7-2.8,6.8c-2.7,1.1-5.7-0.2-6.8-2.8C228.2,286.1,229.4,283.1,232.1,282L232.1,282z M238.9,298.5c2-0.8,4.2,0.1,5,2.1&#10;&#9;c0.8,2-0.1,4.2-2.1,5c-2,0.8-4.2-0.1-5-2.1C236,301.5,236.9,299.3,238.9,298.5L238.9,298.5z M245.7,315c1.3-0.5,2.7,0.1,3.3,1.4&#10;&#9;c0.5,1.3-0.1,2.7-1.3,3.2c-1.3,0.5-2.7-0.1-3.3-1.3C243.9,317,244.5,315.5,245.7,315L245.7,315z" transform="matrix(0.3184823393821716, 0.43871131539344793, -0.43871131539344793, 0.3184823393821716, 135.88120821670833, -122.83626767440494)"/>






<path fill-rule="evenodd" clip-rule="evenodd" fill="#A38800" d="M1165.1,554.4l2.4,7.6h7.9l-6.4,4.7l2.4,7.6l-6.4-4.7l-6.4,4.7&#10;&#9;l2.5-7.6l-6.4-4.7h7.9L1165.1,554.4z M1194.6,566.5c0,0.8-0.7,1.5-1.5,1.5c-0.8,0-1.5-0.7-1.5-1.5c0-0.8,0.7-1.5,1.5-1.5&#10;&#9;C1194,565.1,1194.6,565.7,1194.6,566.5L1194.6,566.5z M1243.8,674.8c-0.8,0-1.5-0.7-1.5-1.5c0-0.8,0.7-1.5,1.5-1.5&#10;&#9;c0.8,0,1.5,0.7,1.5,1.5C1245.2,674.1,1244.6,674.8,1243.8,674.8L1243.8,674.8z M1135.6,724c0-0.8,0.7-1.5,1.5-1.5&#10;&#9;c0.8,0,1.5,0.7,1.5,1.5c0,0.8-0.7,1.5-1.5,1.5C1136.2,725.4,1135.6,724.8,1135.6,724L1135.6,724z M1086.4,615.7&#10;&#9;c0.8,0,1.5,0.7,1.5,1.5c0,0.8-0.7,1.5-1.5,1.5c-0.8,0-1.5-0.7-1.5-1.5C1085,616.4,1085.6,615.7,1086.4,615.7L1086.4,615.7z&#10;&#9; M1232.3,593.5c0,1.3-1,2.3-2.3,2.3c-1.3,0-2.3-1.1-2.3-2.3s1-2.3,2.3-2.3C1231.2,591.2,1232.3,592.2,1232.3,593.5L1232.3,593.5z&#10;&#9; M1215.6,711.8c-1.3,0-2.3-1.1-2.3-2.3c0-1.3,1-2.3,2.3-2.3c1.3,0,2.3,1.1,2.3,2.3C1218,710.8,1216.9,711.8,1215.6,711.8&#10;&#9;L1215.6,711.8z M1097.4,695.1c0-1.3,1-2.3,2.3-2.3c1.3,0,2.3,1.1,2.3,2.3c0,1.3-1.1,2.3-2.3,2.3&#10;&#9;C1098.4,697.5,1097.4,696.4,1097.4,695.1L1097.4,695.1z M1114,576.9c1.3,0,2.3,1,2.3,2.3s-1.1,2.3-2.3,2.3c-1.3,0-2.3-1.1-2.3-2.3&#10;&#9;S1112.7,576.9,1114,576.9L1114,576.9z M1243,622.6c0,2.6-2.1,4.7-4.7,4.7c-2.6,0-4.7-2.1-4.7-4.7s2.1-4.7,4.7-4.7&#10;&#9;C1240.9,617.9,1243,620,1243,622.6L1243,622.6z M1187.5,723.5c-2.6,0-4.7-2.1-4.7-4.7c0-2.6,2.1-4.7,4.7-4.7s4.7,2.1,4.7,4.7&#10;&#9;C1192.2,721.4,1190.1,723.5,1187.5,723.5L1187.5,723.5z M1086.7,668c0-2.6,2.1-4.7,4.7-4.7s4.7,2.1,4.7,4.7c0,2.6-2.1,4.7-4.7,4.7&#10;&#9;S1086.7,670.6,1086.7,668L1086.7,668z M1142.1,567.1c2.6,0,4.7,2.1,4.7,4.7s-2.1,4.7-4.7,4.7c-2.6,0-4.7-2.1-4.7-4.7&#10;&#9;S1139.6,567.1,1142.1,567.1L1142.1,567.1z M1204.4,577l-1.5,6.8l6,3.4l-6.9,0.7l-1.4,6.8l-2.8-6.3l-6.9,0.7l5.1-4.6l-2.8-6.3l6,3.5&#10;&#9;L1204.4,577z M1197.1,589.6l-6.9,0.7c-1.4,2.4,0.7,5.6-0.5,7.8c-1.3,2.2-3.8,1.7-5.4,4.4c-1.3,2.4,0.6,4.8-0.8,7.4&#10;&#9;c-1.3,2.2-3.4,2.2-4.5,4.2c-1.1,1.9,0.3,3.8-0.6,5.4c-0.8,1.4-2.4,1.8-3.5,3.7c-1.2,2-0.1,4.6-3,10.1c3.4-5.2,6.1-5.6,7.3-7.6&#10;&#9;c1.1-1.9,0.6-3.4,1.4-4.9c0.9-1.6,3.3-1.3,4.4-3.2c1.2-2,0.1-3.8,1.4-6.1c1.5-2.5,4.5-2,5.9-4.4c1.6-2.7-0.1-4.6,1.2-6.9&#10;&#9;c1.3-2.2,5.1-1.9,6.4-4.3L1197.1,589.6z M1223.8,611.2l-4,4.4l3,5.1l-5.4-2.4l-4,4.4l0.6-5.9l-5.4-2.4l5.8-1.2l0.6-5.9l2.9,5.1&#10;&#9;L1223.8,611.2z M1212.9,617.4l-5.5-2.4c-2.1,1.2-1.9,4.5-3.7,5.6c-1.9,1.1-3.6-0.4-5.9,1c-2,1.2-1.6,3.9-3.8,5.1&#10;&#9;c-1.9,1.1-3.5,0.2-5.2,1.2c-1.6,0.9-1.4,3-2.8,3.8c-1.2,0.7-2.6,0.3-4.2,1.2c-1.8,1-2.1,3.4-6.6,6.3c4.8-2.4,7-1.5,8.7-2.6&#10;&#9;c1.6-0.9,1.9-2.3,3.1-3c1.4-0.8,3,0.4,4.7-0.5c1.7-1,1.7-2.8,3.6-3.9c2.1-1.3,4.3,0.5,6.3-0.7c2.3-1.3,1.9-3.5,3.8-4.6&#10;&#9;c1.9-1.1,4.6,0.8,6.7-0.4L1212.9,617.4z M1255.6,645.1l-7.6,2.5v7.9l-4.6-6.4l-7.5,2.5l4.7-6.4l-4.7-6.4l7.5,2.5l4.6-6.4v7.9&#10;&#9;L1255.6,645.1z M1238.8,645.1l-4.7-6.4c-3.2,0-5.1,4-8,4c-3,0-3.9-2.8-7.5-2.8c-3.1,0-4.4,3.4-7.8,3.4c-3,0-4.2-2.1-6.8-2.1&#10;&#9;c-2.5,0-3.6,2.5-5.7,2.5c-1.9,0-3.1-1.4-5.7-1.4c-2.7,0-4.7,2.5-11.8,2.9c7.1,0.4,9.1,2.9,11.8,2.9c2.5,0,3.7-1.4,5.7-1.4&#10;&#9;c2.1,0,3.2,2.5,5.7,2.5c2.6,0,3.8-2.1,6.8-2.1c3.4,0,4.7,3.4,7.8,3.4c3.6,0,4.5-2.8,7.5-2.8c2.9,0,4.9,4,8,4L1238.8,645.1z&#10;&#9; M1233.2,684.4l-6.8-1.5l-3.5,6l-0.7-6.9l-6.8-1.4l6.3-2.8l-0.7-6.9l4.6,5.1l6.3-2.8l-3.5,6L1233.2,684.4z M1220.5,677.1l-0.7-6.9&#10;&#9;c-2.4-1.4-5.6,0.7-7.8-0.5c-2.3-1.3-1.8-3.8-4.4-5.3c-2.3-1.4-4.8,0.6-7.3-0.9c-2.3-1.3-2.2-3.4-4.2-4.5c-1.9-1.1-3.8,0.3-5.4-0.6&#10;&#9;c-1.4-0.8-1.7-2.4-3.6-3.5c-2-1.2-4.6-0.1-10.1-3c5.2,3.4,5.6,6.1,7.6,7.3c1.9,1.1,3.4,0.6,4.9,1.4c1.6,0.9,1.3,3.3,3.2,4.4&#10;&#9;c2,1.2,3.8,0.1,6,1.4c2.5,1.5,2.1,4.6,4.4,5.9c2.7,1.6,4.6-0.1,6.8,1.2c2.2,1.3,2,5.1,4.3,6.4L1220.5,677.1z M1199,703.8l-4.4-4&#10;&#9;l-5.2,3l2.5-5.4l-4.4-4l5.9,0.6l2.4-5.4l1.2,5.8l5.9,0.6l-5.2,3L1199,703.8z M1192.7,692.9l2.4-5.5c-1.2-2.1-4.5-1.9-5.6-3.7&#10;&#9;c-1.1-1.9,0.4-3.6-1-5.9c-1.2-2-3.8-1.6-5.1-3.8c-1.2-1.9-0.2-3.5-1.2-5.2c-0.9-1.6-3-1.4-3.8-2.8c-0.7-1.2-0.3-2.6-1.2-4.2&#10;&#9;c-1-1.8-3.4-2.1-6.3-6.6c2.4,4.8,1.5,7,2.6,8.8c0.9,1.6,2.3,1.9,3,3.2c0.8,1.4-0.4,3,0.5,4.7c1,1.7,2.8,1.7,3.9,3.6&#10;&#9;c1.2,2.1-0.5,4.3,0.7,6.3c1.3,2.3,3.5,1.9,4.6,3.8c1.1,1.9-0.7,4.6,0.5,6.7L1192.7,692.9z M1165.1,736.6l-2.4-7.6h-7.9l6.4-5.1&#10;&#9;l-2.5-7.8l6.4,4.6l6.4-4.8l-2.4,8l6.4,5.1h-7.9L1165.1,736.6z M1165.1,718.8l6.4-4.7c0-3.2-3.9-5.1-3.9-8.1c0-3,2.8-3.9,2.8-7.5&#10;&#9;c0-3.1-3.4-4.4-3.4-7.8c0-3,2.1-4.2,2.1-6.8c0-2.5-2.5-3.6-2.5-5.7c0-1.9,1.4-3.2,1.4-5.7c0-2.7-2.5-4.7-2.9-11.8&#10;&#9;c-0.4,7.1-2.9,9.1-2.9,11.8c0,2.5,1.4,3.7,1.4,5.7c0,2.1-2.5,3.2-2.5,5.7c0,2.6,2.1,3.8,2.1,6.8c0,3.4-3.4,4.7-3.4,7.8&#10;&#9;c0,3.6,2.8,4.5,2.8,7.5c0,2.9-4,4.9-4,8.1L1165.1,718.8z M1125.8,713.2l1.4-6.8l-6-3.5l6.9-0.7l1.4-6.8l2.8,6.3l6.9-0.7l-5.1,4.6&#10;&#9;l2.8,6.3l-6-3.5L1125.8,713.2z M1133.1,700.5l6.9-0.7c1.4-2.4-0.7-5.6,0.5-7.8c1.3-2.3,3.8-1.7,5.3-4.4c1.4-2.3-0.6-4.8,0.8-7.3&#10;&#9;c1.3-2.2,3.4-2.2,4.5-4.2c1.1-1.9-0.3-3.8,0.6-5.4c0.8-1.4,2.4-1.8,3.5-3.6c1.2-2,0.2-4.6,3-10.1c-3.4,5.2-6.1,5.6-7.3,7.6&#10;&#9;c-1.1,1.9-0.6,3.4-1.4,4.9c-0.9,1.6-3.3,1.3-4.4,3.2c-1.2,2-0.1,3.8-1.4,6c-1.4,2.5-4.5,2.1-5.9,4.4c-1.5,2.7,0.1,4.6-1.2,6.8&#10;&#9;c-1.3,2.2-5.1,2-6.5,4.3L1133.1,700.5z M1106.4,679l4-4.4l-3-5.1l5.5,2.4l4-4.4l-0.7,6l5.5,2.4l-5.8,1.2l-0.6,5.9l-3-5.2L1106.4,679&#10;&#9;z M1117.3,672.7l5.5,2.4c2.1-1.2,1.9-4.5,3.7-5.6c2-1.1,3.6,0.4,5.9-1c2-1.2,1.6-3.9,3.8-5.1c2-1.1,3.5-0.2,5.2-1.2&#10;&#9;c1.6-0.9,1.4-3,2.8-3.8c1.2-0.7,2.5-0.3,4.2-1.2c1.7-1,2.1-3.4,6.6-6.3c-4.8,2.4-7,1.5-8.7,2.6c-1.6,0.9-1.9,2.3-3.1,3&#10;&#9;c-1.4,0.8-3-0.4-4.7,0.5c-1.7,1-1.7,2.8-3.6,3.9c-2.2,1.2-4.3-0.5-6.3,0.7c-2.3,1.3-1.9,3.5-3.8,4.6c-1.9,1.1-4.6-0.7-6.7,0.5&#10;&#9;L1117.3,672.7z M1074.4,645.1l7.6-2.5v-7.9l4.7,6.4l7.6-2.5l-4.7,6.4l4.7,6.4l-7.6-2.5l-4.7,6.4v-7.9L1074.4,645.1z M1091.4,645.1&#10;&#9;l4.7,6.4c3.2,0,5.1-4,8-4c3,0,3.9,2.8,7.5,2.8c3.1,0,4.4-3.4,7.8-3.4c3,0,4.2,2.1,6.8,2.1c2.5,0,3.6-2.5,5.7-2.5&#10;&#9;c1.9,0,3.1,1.4,5.6,1.4c2.7,0,4.7-2.5,11.8-2.9c-7.1-0.4-9.1-2.9-11.8-2.9c-2.5,0-3.7,1.4-5.6,1.4c-2.1,0-3.2-2.5-5.7-2.5&#10;&#9;c-2.7,0-3.8,2.1-6.8,2.1c-3.3,0-4.7-3.4-7.8-3.4c-3.6,0-4.5,2.8-7.5,2.8c-2.9,0-4.8-4-8-4L1091.4,645.1z M1097,605.8l6.8,1.4l3.4-6&#10;&#9;l0.7,6.9l6.8,1.4l-6.3,2.8l0.7,6.9l-4.6-5.1l-6.3,2.8l3.5-6L1097,605.8z M1109.7,613l0.7,6.9c2.4,1.4,5.6-0.7,7.8,0.5&#10;&#9;c2.2,1.3,1.7,3.8,4.4,5.3c2.4,1.4,4.8-0.6,7.3,0.9c2.2,1.3,2.2,3.4,4.2,4.5c1.9,1.1,3.8-0.3,5.4,0.6c1.4,0.8,1.7,2.4,3.6,3.5&#10;&#9;c2.1,1.2,4.6,0.2,10.1,3c-5.2-3.4-5.6-6.1-7.6-7.3c-1.9-1.1-3.4-0.6-4.9-1.4c-1.6-0.9-1.3-3.3-3.2-4.4c-2-1.2-3.8-0.1-6.1-1.4&#10;&#9;c-2.5-1.4-2-4.6-4.4-5.9c-2.7-1.5-4.6,0.1-6.9-1.2c-2.2-1.3-1.9-5.1-4.3-6.4L1109.7,613z M1131.2,586.4l4.4,4l5.1-3l-2.4,5.4l4.4,4&#10;&#9;l-5.9-0.6l-2.4,5.4l-1.2-5.8l-5.9-0.6l5.1-3L1131.2,586.4z M1137.5,597.2l-2.4,5.5c1.2,2.1,4.5,1.9,5.6,3.7c1.1,2-0.3,3.6,1,5.9&#10;&#9;c1.2,2,3.8,1.6,5.1,3.8c1.1,2,0.2,3.5,1.2,5.2c0.9,1.6,3,1.4,3.8,2.8c0.7,1.2,0.3,2.5,1.2,4.2c1,1.8,3.4,2.1,6.3,6.6&#10;&#9;c-2.4-4.7-1.5-7-2.6-8.7c-0.9-1.6-2.3-1.9-3-3.2c-0.8-1.4,0.4-3-0.5-4.7c-1-1.7-2.8-1.7-3.9-3.6c-1.3-2.2,0.5-4.3-0.7-6.3&#10;&#9;c-1.3-2.3-3.5-1.9-4.6-3.9c-1.1-1.9,0.8-4.6-0.4-6.7L1137.5,597.2z M1165.1,571.3l-6.4,4.7c0,3.2,4,5.1,4,8.1c0,3-2.8,3.9-2.8,7.5&#10;&#9;c0,3.1,3.4,4.4,3.4,7.8c0,3-2.1,4.2-2.1,6.8c0,2.5,2.5,3.6,2.5,5.7c0,1.9-1.4,3.1-1.4,5.6c0,2.7,2.5,4.7,2.9,11.8&#10;&#9;c0.3-7.1,2.9-9.1,2.9-11.8c0-2.5-1.4-3.7-1.4-5.6c0-2.1,2.5-3.2,2.5-5.7c0-2.7-2.1-3.8-2.1-6.8c0-3.3,3.4-4.7,3.4-7.8&#10;&#9;c0-3.6-2.8-4.5-2.8-7.5c0-2.9,3.9-4.9,3.9-8.1L1165.1,571.3z" transform="matrix(0.502116858959198, 0.39415663480758667, -0.39415663480758667, 0.502116858959198, -184.97696661452127, -723.0063349135492)"/>
</svg>