<?xml version="1.0" encoding="utf-8"?>
<svg id="master-artboard" viewBox="0 0 400 400" version="1.1" xmlns="http://www.w3.org/2000/svg" x="0px" y="0px" width="400px" height="400px" enable-background="new 0 0 1400 980"><rect id="ee-background" x="0" y="0" width="400" height="400" style="fill: white; fill-opacity: 0; pointer-events: none;"/>
<path d="M 0 0 H 1400 V 980 H 0 V 0 Z" fill-rule="evenodd" clip-rule="evenodd" fill="#f1cec7" transform="matrix(0.28571429848670965, 0, 0, 0.408162921667099, 1.1901805146984543, -0.000015826696568410625)"/>



<path fill-rule="evenodd" clip-rule="evenodd" fill="#A38800" d="M1197.9,281.3c2.3,1.3,3.5,4.5,1.8,6.6&#10;&#9;c-10.4,12.9-17.3,24.6-24.5,40.2c1.7-14.3,9.1-32.8,16.1-45.1C1192.6,280.7,1195.5,279.9,1197.9,281.3L1197.9,281.3z M1210.5,423.6&#10;&#9;c-0.7-0.2-1.2-0.9-0.9-1.5c1.7-4,2.2-8.1,1.8-10.9c1.2,2.8,1.6,7.9,0.7,11.5C1211.9,423.4,1211.2,423.8,1210.5,423.6L1210.5,423.6z&#10;&#9; M1120.9,434.1c0.7-0.2,1.2-0.9,0.9-1.6c-1.8-4-2.2-8.1-1.8-10.8c-1.2,2.8-1.6,7.9-0.7,11.5C1119.6,433.8,1120.3,434.3,1120.9,434.1&#10;&#9;L1120.9,434.1z M1080.2,376.4c0.6,0.4,1.5,0.2,1.7-0.5c1.5-4.1,4-7.4,6.2-9.1c-2.9,1.2-6.6,4.6-8.4,7.8&#10;&#9;C1079.4,375.2,1079.6,376,1080.2,376.4L1080.2,376.4z M1253,288.4c-0.1,0.7-0.8,1.3-1.5,1.1c-4.1-1.3-8.3-1.3-11-0.6&#10;&#9;c2.7-1.5,7.7-2.4,11.3-1.9C1252.7,287,1253.2,287.7,1253,288.4L1253,288.4z M1249.8,334.3c-0.3,0.6-1.1,1-1.7,0.6&#10;&#9;c-3.6-2.4-7.6-3.6-10.4-3.7c3-0.7,8-0.2,11.4,1.4C1249.8,332.9,1250.1,333.7,1249.8,334.3L1249.8,334.3z M1197.7,244&#10;&#9;c0.4,0.5,0.4,1.4-0.2,1.8c-3.7,2.2-6.5,5.3-7.7,7.8c0.6-3,3.3-7.4,6.1-9.8C1196.5,243.4,1197.3,243.5,1197.7,244L1197.7,244z&#10;&#9; M1251.6,321c-0.3,0.6-1.1,1-1.7,0.6c-3.6-2.4-7.6-3.6-10.4-3.7c3-0.7,8.1-0.2,11.4,1.4C1251.6,319.6,1251.9,320.3,1251.6,321&#10;&#9;L1251.6,321z M1133.4,421.6c1.3-0.1,2.6-1.4,2.2-2.7c-2-8.2-1.6-16.2,0.1-21.4c-3.2,5.1-5.6,14.7-5,21.8&#10;&#9;C1130.8,420.8,1132,421.8,1133.4,421.6L1133.4,421.6z M1169.2,411.5c2.7-0.1,5.5-2.4,4.7-5c-5.2-17.4-7.1-31.4-4.5-43.7&#10;&#9;c-4.7,10.6-8.3,30.1-5.2,44C1164.8,409.4,1166.5,411.5,1169.2,411.5L1169.2,411.5z M1158.9,377.1c1.7,0.1,3.4-1.2,3.2-2.9&#10;&#9;c-1.1-10.4,0.8-20.1,3.7-26.2c-4.8,5.7-9.3,17-9.8,25.9C1155.9,375.6,1157.2,377,1158.9,377.1L1158.9,377.1z M1192.3,422.9&#10;&#9;c-2.7,0.2-5.4-1.8-5.2-4.5c1.3-16.5,0.5-30-2.3-47c6.5,12.8,10.8,32.3,11.9,46.3C1196.9,420.4,1194.9,422.7,1192.3,422.9&#10;&#9;L1192.3,422.9z M1149.9,419.3c2.7,0.1,5.6-2.1,5-4.7c-4.4-17.6-5.6-31.7-2.4-43.9c-5.2,10.4-9.7,29.7-7.2,43.7&#10;&#9;C1145.6,417,1147.2,419.2,1149.9,419.3L1149.9,419.3z M1129.8,253.7c-0.7,1.2-0.5,2.9,0.8,3.4c7.8,3.4,13.9,8.6,16.9,13.1&#10;&#9;c-2-5.7-8.2-13.4-14.2-17.3C1132.1,252.2,1130.5,252.6,1129.8,253.7L1129.8,253.7z M1145.8,252.2c-1.3,1.1-1.6,3.2-0.4,4.3&#10;&#9;c7.9,6.8,13.2,15.2,15.1,21.6c-0.3-7.4-4.7-18.8-10.4-25.6C1149,251.3,1147.1,251.1,1145.8,252.2L1145.8,252.2z M1081.5,350.4&#10;&#9;c1.2,1.7,3.8,2.6,5.1,1.1c9.2-10.5,17.4-17.4,26.5-20.8c-8.8,1.3-22.9,6.9-30.6,14.6C1081.1,346.7,1080.4,348.7,1081.5,350.4&#10;&#9;L1081.5,350.4z M1073.4,326c0.7,2.6,3.6,4.8,5.9,3.4c15.7-9.2,28.8-14.4,41.4-14.9c-11.4-2-31.1-0.8-43.9,5.6&#10;&#9;C1074.4,321.3,1072.7,323.4,1073.4,326L1073.4,326z M1105.3,268.9c-0.4,1.3,0.3,2.9,1.7,3.1c8.4,1.2,15.7,4.5,19.8,8&#10;&#9;c-3.5-4.9-11.5-10.7-18.4-12.7C1107.1,266.8,1105.7,267.6,1105.3,268.9L1105.3,268.9z M1231.1,264.8c0,1.7-1.3,3.3-3,3.1&#10;&#9;c-10.4-1.3-20.1,0.4-26.2,3.2c5.8-4.7,17.1-9,26-9.3C1229.6,261.8,1231,263.1,1231.1,264.8L1231.1,264.8z M1204,255&#10;&#9;c1.1,1.3,1,3.4-0.4,4.3c-9,5.3-15.7,12.6-18.8,18.6c1.7-7.2,8-17.6,14.9-23.3C1201,253.5,1203,253.7,1204,255L1204,255z&#10;&#9; M1105.2,393.4c2.1,1.6,5.8,1.6,6.8-0.8c7-16.8,14.4-28.8,24.3-36.7c-10.4,5.3-25.4,18-31.8,30.7&#10;&#9;C1103.2,389.1,1103.1,391.8,1105.2,393.4L1105.2,393.4z M1107.3,370c1,0.9,2.8,0.9,3.5-0.3c4.4-7.2,10.4-12.5,15.3-14.9&#10;&#9;c-5.9,1.3-14.4,6.3-19.1,11.8C1106.1,367.5,1106.3,369.1,1107.3,370L1107.3,370z M1107.5,355.4c0.8,1.1,2.5,1.4,3.5,0.5&#10;&#9;c5.9-6.1,12.9-10,18.2-11.3c-6-0.1-15.4,3-21.2,7.4C1106.8,352.8,1106.6,354.3,1107.5,355.4L1107.5,355.4z M1096.5,303.1&#10;&#9;c0.4,1.3,1.8,2.2,3,1.6c7.7-3.6,15.6-4.8,21-4.1c-5.6-2.2-15.5-2.7-22.4-0.7C1096.8,300.4,1096,301.8,1096.5,303.1L1096.5,303.1z&#10;&#9; M1126.6,396c1.5,0.7,3.6,0.1,4.1-1.5c2.8-10,8.2-18.4,13.2-22.9c-6.6,3.5-15,12.3-18.8,20.3C1124.4,393.4,1125.1,395.3,1126.6,396&#10;&#9;L1126.6,396z M1256.1,363.3c-1,0.9-2.8,0.9-3.5-0.3c-4.4-7.2-10.4-12.5-15.3-14.9c5.9,1.2,14.4,6.3,19.1,11.8&#10;&#9;C1257.3,360.8,1257.1,362.4,1256.1,363.3L1256.1,363.3z M1256,348.7c-0.8,1.1-2.5,1.4-3.5,0.5c-5.9-6.1-12.9-10-18.2-11.3&#10;&#9;c6-0.1,15.4,3,21.2,7.3C1256.6,346.1,1256.8,347.6,1256,348.7L1256,348.7z M1243.5,375.6c-1.1,0.8-2.9,0.6-3.4-0.7&#10;&#9;c-3.6-7.7-8.9-13.7-13.5-16.6c5.7,1.9,13.6,7.9,17.6,13.9C1244.9,373.3,1244.6,374.9,1243.5,375.6L1243.5,375.6z M1236.8,389.3&#10;&#9;c-1.5,0.7-3.6,0.1-4.1-1.5c-2.8-10-8.2-18.4-13.2-22.9c6.6,3.4,15,12.3,18.8,20.3C1239,386.8,1238.3,388.6,1236.8,389.3&#10;&#9;L1236.8,389.3z M1227.5,392.9c-2.1,1.6-5.7,1.6-6.8-0.8c-7.1-16.8-14.4-28.8-24.3-36.7c10.3,5.3,25.4,18,31.8,30.7&#10;&#9;C1229.5,388.5,1229.6,391.3,1227.5,392.9L1227.5,392.9z M1226.9,355.9c-0.8,1.1-2.4,1.6-3.4,0.7c-6.2-5.7-13.5-9.2-18.8-10.2&#10;&#9;c6-0.4,15.6,2.1,21.6,6.1C1227.4,353.2,1227.7,354.7,1226.9,355.9L1226.9,355.9z M1209.2,390.1c-2.1,1.6-5.7,1.6-6.8-0.8&#10;&#9;c-7-16.8-14.4-28.8-24.3-36.7c10.4,5.3,25.4,18,31.9,30.7C1211.2,385.7,1211.3,388.5,1209.2,390.1L1209.2,390.1z M1211.3,358.9&#10;&#9;c-1,1.4-3.1,1.8-4.3,0.6c-7.3-7.5-16-12.3-22.5-13.8c7.4-0.1,19,3.6,26.1,8.9C1212,355.6,1212.3,357.5,1211.3,358.9L1211.3,358.9z&#10;&#9; M1232.1,341.7c-0.3,2.7-2.8,4.9-5.4,4.2c-15.9-4.5-29.4-6.3-46.6-6.8c13.8-4,33.7-4.4,47.7-2.8&#10;&#9;C1230.6,336.6,1232.5,339,1232.1,341.7L1232.1,341.7z M1133.3,346c0.8,1.5,2.8,2.2,4.2,1.2c8.3-6.4,17.5-9.9,24.2-10.6&#10;&#9;c-7.3-1.2-19.4,1-27.2,5.3C1133,342.7,1132.5,344.6,1133.3,346L1133.3,346z M1113.2,339.5c0.7,1.6,2.6,2.5,4,1.6&#10;&#9;c8.9-5.5,18.5-8,25.2-7.9c-7.2-1.9-19.4-1.2-27.5,2.2C1113.2,336.2,1112.5,338,1113.2,339.5L1113.2,339.5z M1243.5,295.6&#10;&#9;c0,1.7-1.3,3.4-3,3.2c-10.4-1.3-20.1,0.4-26.2,3.2c5.7-4.7,17.1-9,26-9.3C1242,292.6,1243.4,293.9,1243.5,295.6L1243.5,295.6z&#10;&#9; M1243.1,305.6c0.7,2.6-0.7,6-3.4,5.9c-18.2-0.1-32.1,2-43.2,8c8.9-7.5,26.5-16.4,40.7-17.3C1239.9,302,1242.5,303,1243.1,305.6&#10;&#9;L1243.1,305.6z M1236.2,277.9c1,2.5,0,5.7-2.6,6.3c-16,4.1-29.4,12.2-36.7,19.9c5.7-10.3,20-23.2,32.9-28.8&#10;&#9;C1232.4,274.2,1235.2,275.4,1236.2,277.9L1236.2,277.9z M1170.1,268c2.7,0,5.1,2.2,4.8,4.8l-4.8,50.1l-4.8-50.1&#10;&#9;C1165,270.2,1167.4,268,1170.1,268L1170.1,268z M1120.2,318.9c-0.7,2.6,0.7,5.9,3.4,5.9c18.2-0.1,32.1,2,43.2,7.9&#10;&#9;c-8.9-7.5-26.5-16.4-40.7-17.3C1123.5,315.3,1120.9,316.4,1120.2,318.9L1120.2,318.9z M1126,296.2c-1.4,2.3-0.7,5.6,1.8,6.6&#10;&#9;c15.4,6,27.7,15.7,34,24.3c-4.4-10.9-17-25.5-29.2-32.6C1130.2,293.1,1127.3,293.9,1126,296.2L1126,296.2z M1144.9,278.3&#10;&#9;c-2.3,1.3-3.5,4.5-1.8,6.6c10.4,12.9,17.3,24.6,24.5,40.2c-1.8-14.3-9.1-32.8-16.1-45C1150.2,277.7,1147.2,276.9,1144.9,278.3&#10;&#9;L1144.9,278.3z M1233.4,321.4c0.7,2.6-0.7,6-3.4,5.9c-18.2-0.1-32.1,2-43.2,8c8.9-7.5,26.5-16.4,40.7-17.3&#10;&#9;C1230.2,317.8,1232.7,318.8,1233.4,321.4L1233.4,321.4z M1205.5,307.2c0.8,1.5,0.5,3.6-1.1,4.2c-9.7,3.8-17.5,9.9-21.5,15.3&#10;&#9;c2.8-6.9,10.8-16.1,18.4-20.6C1202.8,305.3,1204.6,305.8,1205.5,307.2L1205.5,307.2z" transform="matrix(0.5724620819091797, 0, 0, 0.5724620819091797, -326.6795577191633, -106.53688755465113)"/>




<path fill-rule="evenodd" clip-rule="evenodd" fill="#A38800" d="M1197.9,281.3c2.3,1.3,3.5,4.5,1.8,6.6&#10;&#9;c-10.4,12.9-17.3,24.6-24.5,40.2c1.7-14.3,9.1-32.8,16.1-45.1C1192.6,280.7,1195.5,279.9,1197.9,281.3L1197.9,281.3z M1210.5,423.6&#10;&#9;c-0.7-0.2-1.2-0.9-0.9-1.5c1.7-4,2.2-8.1,1.8-10.9c1.2,2.8,1.6,7.9,0.7,11.5C1211.9,423.4,1211.2,423.8,1210.5,423.6L1210.5,423.6z&#10;&#9; M1120.9,434.1c0.7-0.2,1.2-0.9,0.9-1.6c-1.8-4-2.2-8.1-1.8-10.8c-1.2,2.8-1.6,7.9-0.7,11.5C1119.6,433.8,1120.3,434.3,1120.9,434.1&#10;&#9;L1120.9,434.1z M1080.2,376.4c0.6,0.4,1.5,0.2,1.7-0.5c1.5-4.1,4-7.4,6.2-9.1c-2.9,1.2-6.6,4.6-8.4,7.8&#10;&#9;C1079.4,375.2,1079.6,376,1080.2,376.4L1080.2,376.4z M1253,288.4c-0.1,0.7-0.8,1.3-1.5,1.1c-4.1-1.3-8.3-1.3-11-0.6&#10;&#9;c2.7-1.5,7.7-2.4,11.3-1.9C1252.7,287,1253.2,287.7,1253,288.4L1253,288.4z M1249.8,334.3c-0.3,0.6-1.1,1-1.7,0.6&#10;&#9;c-3.6-2.4-7.6-3.6-10.4-3.7c3-0.7,8-0.2,11.4,1.4C1249.8,332.9,1250.1,333.7,1249.8,334.3L1249.8,334.3z M1197.7,244&#10;&#9;c0.4,0.5,0.4,1.4-0.2,1.8c-3.7,2.2-6.5,5.3-7.7,7.8c0.6-3,3.3-7.4,6.1-9.8C1196.5,243.4,1197.3,243.5,1197.7,244L1197.7,244z&#10;&#9; M1251.6,321c-0.3,0.6-1.1,1-1.7,0.6c-3.6-2.4-7.6-3.6-10.4-3.7c3-0.7,8.1-0.2,11.4,1.4C1251.6,319.6,1251.9,320.3,1251.6,321&#10;&#9;L1251.6,321z M1133.4,421.6c1.3-0.1,2.6-1.4,2.2-2.7c-2-8.2-1.6-16.2,0.1-21.4c-3.2,5.1-5.6,14.7-5,21.8&#10;&#9;C1130.8,420.8,1132,421.8,1133.4,421.6L1133.4,421.6z M1169.2,411.5c2.7-0.1,5.5-2.4,4.7-5c-5.2-17.4-7.1-31.4-4.5-43.7&#10;&#9;c-4.7,10.6-8.3,30.1-5.2,44C1164.8,409.4,1166.5,411.5,1169.2,411.5L1169.2,411.5z M1158.9,377.1c1.7,0.1,3.4-1.2,3.2-2.9&#10;&#9;c-1.1-10.4,0.8-20.1,3.7-26.2c-4.8,5.7-9.3,17-9.8,25.9C1155.9,375.6,1157.2,377,1158.9,377.1L1158.9,377.1z M1192.3,422.9&#10;&#9;c-2.7,0.2-5.4-1.8-5.2-4.5c1.3-16.5,0.5-30-2.3-47c6.5,12.8,10.8,32.3,11.9,46.3C1196.9,420.4,1194.9,422.7,1192.3,422.9&#10;&#9;L1192.3,422.9z M1149.9,419.3c2.7,0.1,5.6-2.1,5-4.7c-4.4-17.6-5.6-31.7-2.4-43.9c-5.2,10.4-9.7,29.7-7.2,43.7&#10;&#9;C1145.6,417,1147.2,419.2,1149.9,419.3L1149.9,419.3z M1129.8,253.7c-0.7,1.2-0.5,2.9,0.8,3.4c7.8,3.4,13.9,8.6,16.9,13.1&#10;&#9;c-2-5.7-8.2-13.4-14.2-17.3C1132.1,252.2,1130.5,252.6,1129.8,253.7L1129.8,253.7z M1145.8,252.2c-1.3,1.1-1.6,3.2-0.4,4.3&#10;&#9;c7.9,6.8,13.2,15.2,15.1,21.6c-0.3-7.4-4.7-18.8-10.4-25.6C1149,251.3,1147.1,251.1,1145.8,252.2L1145.8,252.2z M1081.5,350.4&#10;&#9;c1.2,1.7,3.8,2.6,5.1,1.1c9.2-10.5,17.4-17.4,26.5-20.8c-8.8,1.3-22.9,6.9-30.6,14.6C1081.1,346.7,1080.4,348.7,1081.5,350.4&#10;&#9;L1081.5,350.4z M1073.4,326c0.7,2.6,3.6,4.8,5.9,3.4c15.7-9.2,28.8-14.4,41.4-14.9c-11.4-2-31.1-0.8-43.9,5.6&#10;&#9;C1074.4,321.3,1072.7,323.4,1073.4,326L1073.4,326z M1105.3,268.9c-0.4,1.3,0.3,2.9,1.7,3.1c8.4,1.2,15.7,4.5,19.8,8&#10;&#9;c-3.5-4.9-11.5-10.7-18.4-12.7C1107.1,266.8,1105.7,267.6,1105.3,268.9L1105.3,268.9z M1231.1,264.8c0,1.7-1.3,3.3-3,3.1&#10;&#9;c-10.4-1.3-20.1,0.4-26.2,3.2c5.8-4.7,17.1-9,26-9.3C1229.6,261.8,1231,263.1,1231.1,264.8L1231.1,264.8z M1204,255&#10;&#9;c1.1,1.3,1,3.4-0.4,4.3c-9,5.3-15.7,12.6-18.8,18.6c1.7-7.2,8-17.6,14.9-23.3C1201,253.5,1203,253.7,1204,255L1204,255z&#10;&#9; M1105.2,393.4c2.1,1.6,5.8,1.6,6.8-0.8c7-16.8,14.4-28.8,24.3-36.7c-10.4,5.3-25.4,18-31.8,30.7&#10;&#9;C1103.2,389.1,1103.1,391.8,1105.2,393.4L1105.2,393.4z M1107.3,370c1,0.9,2.8,0.9,3.5-0.3c4.4-7.2,10.4-12.5,15.3-14.9&#10;&#9;c-5.9,1.3-14.4,6.3-19.1,11.8C1106.1,367.5,1106.3,369.1,1107.3,370L1107.3,370z M1107.5,355.4c0.8,1.1,2.5,1.4,3.5,0.5&#10;&#9;c5.9-6.1,12.9-10,18.2-11.3c-6-0.1-15.4,3-21.2,7.4C1106.8,352.8,1106.6,354.3,1107.5,355.4L1107.5,355.4z M1096.5,303.1&#10;&#9;c0.4,1.3,1.8,2.2,3,1.6c7.7-3.6,15.6-4.8,21-4.1c-5.6-2.2-15.5-2.7-22.4-0.7C1096.8,300.4,1096,301.8,1096.5,303.1L1096.5,303.1z&#10;&#9; M1126.6,396c1.5,0.7,3.6,0.1,4.1-1.5c2.8-10,8.2-18.4,13.2-22.9c-6.6,3.5-15,12.3-18.8,20.3C1124.4,393.4,1125.1,395.3,1126.6,396&#10;&#9;L1126.6,396z M1256.1,363.3c-1,0.9-2.8,0.9-3.5-0.3c-4.4-7.2-10.4-12.5-15.3-14.9c5.9,1.2,14.4,6.3,19.1,11.8&#10;&#9;C1257.3,360.8,1257.1,362.4,1256.1,363.3L1256.1,363.3z M1256,348.7c-0.8,1.1-2.5,1.4-3.5,0.5c-5.9-6.1-12.9-10-18.2-11.3&#10;&#9;c6-0.1,15.4,3,21.2,7.3C1256.6,346.1,1256.8,347.6,1256,348.7L1256,348.7z M1243.5,375.6c-1.1,0.8-2.9,0.6-3.4-0.7&#10;&#9;c-3.6-7.7-8.9-13.7-13.5-16.6c5.7,1.9,13.6,7.9,17.6,13.9C1244.9,373.3,1244.6,374.9,1243.5,375.6L1243.5,375.6z M1236.8,389.3&#10;&#9;c-1.5,0.7-3.6,0.1-4.1-1.5c-2.8-10-8.2-18.4-13.2-22.9c6.6,3.4,15,12.3,18.8,20.3C1239,386.8,1238.3,388.6,1236.8,389.3&#10;&#9;L1236.8,389.3z M1227.5,392.9c-2.1,1.6-5.7,1.6-6.8-0.8c-7.1-16.8-14.4-28.8-24.3-36.7c10.3,5.3,25.4,18,31.8,30.7&#10;&#9;C1229.5,388.5,1229.6,391.3,1227.5,392.9L1227.5,392.9z M1226.9,355.9c-0.8,1.1-2.4,1.6-3.4,0.7c-6.2-5.7-13.5-9.2-18.8-10.2&#10;&#9;c6-0.4,15.6,2.1,21.6,6.1C1227.4,353.2,1227.7,354.7,1226.9,355.9L1226.9,355.9z M1209.2,390.1c-2.1,1.6-5.7,1.6-6.8-0.8&#10;&#9;c-7-16.8-14.4-28.8-24.3-36.7c10.4,5.3,25.4,18,31.9,30.7C1211.2,385.7,1211.3,388.5,1209.2,390.1L1209.2,390.1z M1211.3,358.9&#10;&#9;c-1,1.4-3.1,1.8-4.3,0.6c-7.3-7.5-16-12.3-22.5-13.8c7.4-0.1,19,3.6,26.1,8.9C1212,355.6,1212.3,357.5,1211.3,358.9L1211.3,358.9z&#10;&#9; M1232.1,341.7c-0.3,2.7-2.8,4.9-5.4,4.2c-15.9-4.5-29.4-6.3-46.6-6.8c13.8-4,33.7-4.4,47.7-2.8&#10;&#9;C1230.6,336.6,1232.5,339,1232.1,341.7L1232.1,341.7z M1133.3,346c0.8,1.5,2.8,2.2,4.2,1.2c8.3-6.4,17.5-9.9,24.2-10.6&#10;&#9;c-7.3-1.2-19.4,1-27.2,5.3C1133,342.7,1132.5,344.6,1133.3,346L1133.3,346z M1113.2,339.5c0.7,1.6,2.6,2.5,4,1.6&#10;&#9;c8.9-5.5,18.5-8,25.2-7.9c-7.2-1.9-19.4-1.2-27.5,2.2C1113.2,336.2,1112.5,338,1113.2,339.5L1113.2,339.5z M1243.5,295.6&#10;&#9;c0,1.7-1.3,3.4-3,3.2c-10.4-1.3-20.1,0.4-26.2,3.2c5.7-4.7,17.1-9,26-9.3C1242,292.6,1243.4,293.9,1243.5,295.6L1243.5,295.6z&#10;&#9; M1243.1,305.6c0.7,2.6-0.7,6-3.4,5.9c-18.2-0.1-32.1,2-43.2,8c8.9-7.5,26.5-16.4,40.7-17.3C1239.9,302,1242.5,303,1243.1,305.6&#10;&#9;L1243.1,305.6z M1236.2,277.9c1,2.5,0,5.7-2.6,6.3c-16,4.1-29.4,12.2-36.7,19.9c5.7-10.3,20-23.2,32.9-28.8&#10;&#9;C1232.4,274.2,1235.2,275.4,1236.2,277.9L1236.2,277.9z M1170.1,268c2.7,0,5.1,2.2,4.8,4.8l-4.8,50.1l-4.8-50.1&#10;&#9;C1165,270.2,1167.4,268,1170.1,268L1170.1,268z M1120.2,318.9c-0.7,2.6,0.7,5.9,3.4,5.9c18.2-0.1,32.1,2,43.2,7.9&#10;&#9;c-8.9-7.5-26.5-16.4-40.7-17.3C1123.5,315.3,1120.9,316.4,1120.2,318.9L1120.2,318.9z M1126,296.2c-1.4,2.3-0.7,5.6,1.8,6.6&#10;&#9;c15.4,6,27.7,15.7,34,24.3c-4.4-10.9-17-25.5-29.2-32.6C1130.2,293.1,1127.3,293.9,1126,296.2L1126,296.2z M1144.9,278.3&#10;&#9;c-2.3,1.3-3.5,4.5-1.8,6.6c10.4,12.9,17.3,24.6,24.5,40.2c-1.8-14.3-9.1-32.8-16.1-45C1150.2,277.7,1147.2,276.9,1144.9,278.3&#10;&#9;L1144.9,278.3z M1233.4,321.4c0.7,2.6-0.7,6-3.4,5.9c-18.2-0.1-32.1,2-43.2,8c8.9-7.5,26.5-16.4,40.7-17.3&#10;&#9;C1230.2,317.8,1232.7,318.8,1233.4,321.4L1233.4,321.4z M1205.5,307.2c0.8,1.5,0.5,3.6-1.1,4.2c-9.7,3.8-17.5,9.9-21.5,15.3&#10;&#9;c2.8-6.9,10.8-16.1,18.4-20.6C1202.8,305.3,1204.6,305.8,1205.5,307.2L1205.5,307.2z" transform="matrix(0.572435736656189, -0.004787378944456578, 0.004787378944456578, 0.572435736656189, -399.6910373607149, -128.3253644572539)"/></svg>