<?xml version="1.0" encoding="utf-8"?>
<!-- Designed by Vexels.com - 2020 All Rights Reserved - https://vexels.com/terms-and-conditions/  -->
<svg version="1.1" id="Layer_1" xmlns="http://www.w3.org/2000/svg" xmlns:xlink="http://www.w3.org/1999/xlink" x="0px" y="0px"
	 viewBox="0 0 1200 1200" enable-background="new 0 0 1200 1200" xml:space="preserve">
<g>
	<path fill="darkgoldenrod" d="M156.593,1065.735c-4.594-9.536-6.871-27.119-19.07-30.226c-1.396-0.356-1.965,17.546-1.939,18.78
		c0.14,6.736,0.966,13.452,2.41,20.033l23.797,1.15C159.966,1072.301,158.203,1069.077,156.593,1065.735z"/>
	<path fill="darkgoldenrod" d="M533.418,1039.952c-2.63-7.458-3.379-29.796,10.891-21.819c0.15,0.084,0.283,0.175,0.426,0.262
		c-0.819-1.18-1.704-2.525-2.641-4.062c-9.604-16.991-13.999-33.511-14.68-52.979c-0.348-9.953,0.009-19.918,0.689-29.85
		c0.624-9.108,2.91-18.931,2.526-28.019c0.391,9.253,0.954,18.506,1.311,27.758c0.36,9.329,0.874,18.647,1.541,27.947
		c0.74,10.805,1.012,21.973,5.17,32.131c3.529,8.62,9.096,16.234,12.524,24.904c0.002,0.005,0.062,0.157,0.062,0.157
		s0.484,1.083,0.547,1.221c-0.277-0.608,0.517-1.847,1.686-3.081c0.791-0.835,1.751-1.655,2.671-2.288
		c-2.89-2.575-5.482-5.436-7.317-8.909c-2-3.79-2.771-7.978-3.448-12.294c-8.903-56.934-4.467-111.902,12.825-158.963l0.308-0.838
		c0.235-0.639,0.477-1.278,0.722-1.915c-7.872-3.263-40.896-12.109-44.109-12.814c-16.043-3.517-32.3-5.989-48.601-7.951
		c-13.305-1.601-27.07-1.329-40.427-0.657c-11.91,0.599-25.644,0.932-37.384,3.706c0.021,0.01,0.043,0.013,0.064,0.023
		c10.729,5.138,20.834,11.355,30.293,18.419c8.383-2.57,16.518-4.47,25.28-5.591c11.224-1.436,22.558-1.713,33.841-0.821
		c6.606,0.522,14.074,3.418,20.512,3.221c-6.056,0.186-12.03,0.281-18.008,0.588c-9.332,0.479-18.672,1.092-27.932,2.378
		c-8.279,1.15-16.511,4.226-24.791,4.914c-0.645,0.054-1.292,0.074-1.943,0.052c-0.345-0.012-0.689-0.098-1.035-0.14
		c4.158,3.376,8.189,6.907,12.046,10.632c1.12-0.31,2.552-0.703,3.441-0.942c0.93-0.371,2.037-0.692,3.322-0.942
		c15.598-2.086,31.165-3.001,46.896-2.129c5.204,0.567,10.392,1.002,15.529,2.028c-5.126-1.033-13.072,1.322-18.397,1.822
		c-7.331,0.688-14.649,1.5-21.952,2.435c-6.661,0.853-14.01,2.947-20.901,3.255c-0.844,0.038-1.672,0.016-2.5-0.006
		c3.683,3.862,7.21,7.877,10.568,12.05c6.102-2.315,14.174-1.992,20.58-2.405c8.292-0.535,16.637-0.629,24.913,0.212
		c4.75,0.482,9.484,0.784,14.198,1.63c-4.719,0.819-9.417,1.233-14.095,1.97c-4.685,0.481-9.355,1.037-14.01,1.659
		c-8.892,1.115-17.788,1.959-26.622,3.319c3.782,5.126,7.33,10.448,10.612,15.961c0.605-0.117,1.224-0.204,1.861-0.291
		c0.651-0.284,1.326-0.467,2.105-0.55c9.29-0.991,19.587,0.199,28.692,2.096c2.222,0.463,6.421,2.645,8.464,2.283
		c-7.563,1.335-15.385,1.808-23.039,2.298c-4.104,0.263-10.223,1.625-14.483,0.575c3.047,5.583,5.828,11.341,8.346,17.252
		c5.908-0.088,21.857,0.014,23.774,0.418c2.464,0.519,4.92,0.786,7.384,1.529c-8.993,3.421-18.969,3.803-28.459,4.683
		c2.08,5.411,3.967,10.924,5.588,16.561c6.547-0.944,14.14-1.717,19.383,3.151c-1.029,0.786-2.033,1.094-3.046,1.662
		c-4.043,1.22-7.547,1.289-11.535,0.948c-0.725-0.062-1.466-0.137-2.229-0.222c-0.42-0.047-0.751-0.098-1.144-0.146
		c3.038,11.679,5.214,23.681,6.362,35.788c0.594,6.279,0.173,12.58-0.237,18.675c-0.459,6.85-0.895,13.317-0.026,19.837
		c1.575,11.866,17.878,39.459,29.721,44.181c1.865,0.744,4.057,0.782,6.177,0.816c2.995,0.051,6.009,0.136,9.031,0.221
		C537.972,1052.019,534.126,1041.959,533.418,1039.952z"/>
	<path fill="darkgoldenrod" d="M786.73,652.655c-3.692-0.207-6.26,0.148-5.773,0.958c0.471,0.81,3.758,1.47,7.449,1.676
		c4.757,0.256,12.974,0.099,16.98-0.008c0,0.013,0.002,0.026,0.001,0.039c0.003-0.226,0.014-0.452,0.033-0.678
		c-0.007,0.076-0.021,0.151-0.026,0.227C801.05,654.241,791.669,652.936,786.73,652.655z"/>
	<path fill="darkgoldenrod" d="M164.373,1032.916c-1.188-1.102-2.651-2.068-4.2-3.094c-0.194-0.128-0.391-0.263-0.587-0.393
		c-0.169,0.13-0.379,0.214-0.533,0.365c-0.822,0.831-1.383,2.168-1.668,3.87c-1.423,8.106,0.877,16.611,3.882,24.075
		c2.104,5.225,4.592,12.011,6.526,18.023l4.622,0.224c9.403,0.462,15.836-1.098,17.633-4.256c1.632-2.876-0.575-7.32-2.715-10.542
		C181.714,1052.715,174.025,1041.85,164.373,1032.916z"/>
	<path fill="darkgoldenrod" d="M674.071,289.453c-5.016,4.384-7.456,10.082-7.253,16.932c0.38,12.59,9.599,26.159,18.509,33.054
		c1.894,1.465,3.904,2.839,6.007,4.12c5.237-1.831,9.075-6.576,11.687-11.542c3.142-5.973,4.892-13.833,10.414-18.144
		c0.916-0.751,1.967-1.373,3.07-1.823c-0.485-0.258-0.959-0.525-1.408-0.809c-2.935-1.98-5.36-4.223-8.174-5.677
		c-1.391-0.736-2.908-1.227-4.472-1.333c-0.751-0.041-1.526,0.085-2.015,0.59c-0.445,0.48-0.585,1.552,0.189,1.996
		c-0.421-0.094-0.747-0.502-0.849-0.946c-0.107-0.445-0.073-0.945,0.18-1.382c3.078-5.294,15.244,2.936,18.651,3.944
		c5.319,1.573,10.984,1.425,15.996-0.43c11.174-4.137,21.313-17.656,9.337-27.508c-8.733-7.184-21.832-6.405-31.8-11.104
		c-4.222-1.99-8.221-4.459-11.888-7.346c-0.979-0.77-4.942-5.292-7.447-7.721c-8.858-1.698-16.948-0.899-20.913,6.66
		c-3.673,7.014-0.519,13.496,2.824,20.359l0.917,1.895c0.259,0.541,0.429,1.128,0.62,1.833l0.647,2.194l-1.677,1.284
		C674.831,288.842,674.44,289.131,674.071,289.453z M722.412,286.654c4.168-3.304,10.77-5.873,16.019-3.81
		c9.391,3.692,2.977,11.587-3.709,13.388c-0.863,0.232-4.422,0.164-4.836,0.597c1.302-1.362,5.833-4.428,6.215-6.294
		c0.178-0.867-0.661-1.142-1.948-1.093c-2.955,0.111-8.271,1.922-9.074,2.166c-3.205,1.058-6.488,2.505-10.261,3.374
		C716.804,291.671,719.344,288.981,722.412,286.654z M676.471,263.496c1.908-4.734,6.676-3.147,9.733-0.522
		c0.033,0.028,0.066,0.057,0.098,0.085c3.788,3.32,5.296,8.527,4.464,13.429c-0.513,3.022-1.578,5.739-3.47,8.201
		c-1.097-2.917-1.497-5.627-2.153-8.054c-0.73-2.419-1.263-4.529-2.259-6.382c-0.669-1.246-1.244-3.071-2.707-3.633
		c-0.993,0.66-1.698,1.735-1.908,2.908C676.41,268.234,675.624,265.597,676.471,263.496z"/>
	<path fill="darkgoldenrod" d="M783.641,643.339c-6.483-2.098-11.727-3.023-12.091-1.892c-0.372,1.14,4.658,3.527,11.132,5.632
		c7.639,2.478,17.426,4.749,23,5.971c-0.034,0.134-0.055,0.271-0.084,0.407c0.107-0.491,0.249-0.976,0.437-1.447
		c-0.017,0.042-0.039,0.081-0.056,0.123C800.719,649.814,791.379,645.858,783.641,643.339z"/>
	<path fill="darkgoldenrod" d="M810.145,663.44c-0.544-0.298-1.063-0.658-1.55-1.075c0.066,0.057,0.126,0.119,0.193,0.176
		c-3.832,4.286-10.48,11.95-15.27,18.532c-4.006,5.516-6.5,10.216-5.533,10.91c0.966,0.71,4.79-3.337,8.796-8.845
		c4.716-6.492,9.902-15.105,12.784-20.027C809.753,663.227,809.95,663.333,810.145,663.44z"/>
	<path fill="darkgoldenrod" d="M793.568,673.739c3.724-3.031,10.549-9.445,13.844-12.583c-0.147-0.182-0.279-0.368-0.41-0.558
		c0.047,0.068,0.086,0.142,0.134,0.208c-3.468,2.329-10.282,6.986-13.982,9.993c-2.865,2.338-5.03,4.724-4.938,5.666
		C788.307,677.398,790.694,676.068,793.568,673.739z"/>
	<path fill="darkgoldenrod" d="M807.274,649.846c-0.047,0.062-0.102,0.12-0.146,0.182c-3.295-2.585-9.828-7.622-13.825-10.208
		c-3.114-2.006-6.054-3.328-6.921-2.948c-0.859,0.38,1.14,2.238,4.245,4.245c4.039,2.601,12.247,7.112,16.244,9.284
		C806.996,650.212,807.134,650.029,807.274,649.846z"/>
	<path fill="darkgoldenrod" d="M792.145,545.083c3.905,0,7.067-3.169,7.067-7.074c0-3.906-3.162-7.068-7.067-7.068
		c-3.906,0-7.075,3.162-7.075,7.068C785.07,541.914,788.239,545.083,792.145,545.083z M792.144,533.788
		c2.332,0,4.223,1.891,4.223,4.223s-1.89,4.223-4.223,4.223s-4.223-1.891-4.223-4.223S789.811,533.788,792.144,533.788z"/>
	<path fill="darkgoldenrod" d="M310.982,723.277c0-1.94,0.523-3.755,1.425-5.324c-5.999-2.15-13.218-4.142-19.401-4.142
		c-7.672,0-13.891,3.546-13.891,9.413c0,5.867,5.944,9.518,13.616,9.518c6.278,0,13.584-2.024,19.638-4.205
		C311.49,726.983,310.982,725.19,310.982,723.277z"/>
	<path fill="darkgoldenrod" d="M321.693,712.566c1.94,0,3.755,0.524,5.324,1.425c2.151-5.998,4.142-13.218,4.142-19.401
		c0-7.672-3.546-13.891-9.413-13.891s-9.518,5.944-9.518,13.616c0,6.278,2.024,13.584,4.205,19.638
		C317.988,713.074,319.78,712.566,321.693,712.566z"/>
	<path fill="darkgoldenrod" d="M321.693,733.989c-1.94,0-3.754-0.523-5.323-1.425c-2.151,5.999-4.142,13.219-4.142,19.402
		c0,7.672,3.546,13.891,9.413,13.891c5.867,0,9.518-5.944,9.518-13.616c0-6.278-2.024-13.584-4.205-19.638
		C325.399,733.481,323.607,733.989,321.693,733.989z"/>
	<path fill="darkgoldenrod" d="M331.018,718.017c0.879,1.554,1.386,3.347,1.386,5.261c0,1.94-0.524,3.754-1.425,5.323
		c5.999,2.151,13.218,4.143,19.401,4.143c7.671,0,13.891-3.546,13.891-9.413c0-5.867-5.944-9.518-13.616-9.518
		C344.377,713.812,337.072,715.835,331.018,718.017z"/>
	<path fill="darkgoldenrod" d="M811.208,663.944c-1.941,3.939-6.079,12.454-7.871,17.062c-1.338,3.452-1.8,6.004-0.884,5.797
		c0.925-0.198,2.568-3.121,3.898-6.573c1.718-4.443,4.105-12.305,5.244-16.146c0.045,0.015,0.092,0.023,0.138,0.038
		c-0.196-0.063-0.391-0.128-0.584-0.205C811.17,663.926,811.188,663.937,811.208,663.944z"/>
	<path fill="darkgoldenrod" d="M922.206,542.391c3.848,1.251,8.265,2.026,12.638,2.52c0.555-0.252,1.103-0.5,1.632-0.734
		c-0.304,0.269-0.606,0.544-0.908,0.817c0.297,0.032,0.595,0.075,0.891,0.103c-0.423,0.091-0.869,0.182-1.309,0.273
		c-3.226,2.951-6.315,6.164-8.67,9.406c-4.804,6.613-6.331,13.695-2.412,16.542c3.919,2.847,10.08-0.505,14.885-7.118
		c2.372-3.266,4.486-7.214,6.304-11.211c-0.07-0.615-0.137-1.224-0.196-1.808c0.163,0.375,0.333,0.751,0.501,1.127
		c0.123-0.276,0.249-0.551,0.368-0.826c-0.044,0.43-0.095,0.882-0.145,1.328c1.809,3.981,3.911,7.911,6.266,11.152
		c4.805,6.613,11.068,10.253,14.987,7.406c3.919-2.847,2.635-9.743-2.17-16.356c-2.373-3.266-5.474-6.496-8.713-9.46
		c-0.607-0.124-1.206-0.248-1.781-0.372c0.407-0.039,0.817-0.084,1.227-0.128c-0.224-0.202-0.447-0.407-0.672-0.606
		c0.396,0.175,0.81,0.364,1.219,0.549c4.345-0.491,8.733-1.275,12.543-2.513c7.774-2.526,13.172-7.359,11.675-11.965
		c-1.497-4.606-8.452-5.516-16.226-2.99c-3.84,1.248-7.871,3.199-11.691,5.364c-0.305,0.539-0.609,1.071-0.904,1.579
		c0.089-0.399,0.172-0.803,0.257-1.206c-0.261,0.151-0.525,0.299-0.783,0.452c0.289-0.323,0.596-0.658,0.898-0.99
		c0.876-4.284,1.486-8.699,1.486-12.706c0-8.174-2.928-14.8-7.771-14.8c-4.844,0-7.858,6.333-7.858,14.508
		c0,4.037,0.61,8.474,1.488,12.775c0.419,0.457,0.83,0.909,1.222,1.348c-0.352-0.208-0.711-0.412-1.068-0.618
		c0.063,0.295,0.122,0.591,0.187,0.885c-0.217-0.374-0.441-0.771-0.664-1.161c-3.803-2.157-7.814-4.101-11.624-5.339
		c-7.774-2.526-14.981-1.789-16.478,2.817C909.34,535.041,914.432,539.865,922.206,542.391z M941.376,537.56
		c2.325-2.326,6.096-2.326,8.422,0c2.325,2.326,2.325,6.096,0,8.422c-2.325,2.326-6.096,2.326-8.422,0
		C939.051,543.656,939.051,539.886,941.376,537.56z"/>
	<path fill="darkgoldenrod" d="M766.239,1018.221c-6.828,3.3-10.964,11.534-12.494,18.616c-0.311,1.439-0.843,14.348-0.077,18.833
		c5.573,0.318,11.147,0.468,16.616,0.219c1.075-0.056,2.207,0.023,3.316,0.09c1.876,0.116,4.185,0.248,4.771-0.44
		c0.139-0.169,0.556-0.899,0.008-3.286C775.771,1040.921,771.683,1029.531,766.239,1018.221z"/>
	<path fill="darkgoldenrod" d="M743.829,1030.884c-0.546-2.619-1.253-8.073-4.877-6.235c-2.927,1.485-4.939,12.006-5.766,14.996
		c-1.293,4.681-2.238,9.452-3.037,14.239c3.007,0.224,6.009,0.44,9.038,0.699c2.258,0.194,4.536,0.383,6.819,0.563
		C745.429,1049.995,744.191,1032.625,743.829,1030.884z"/>
	<path fill="darkgoldenrod" d="M556.625,1049.61c-2.094-3.861-3.814-7.93-5.017-12.156c-0.56-1.967-10.561-16.307-13.3-12.687
		c-0.603,0.799-0.606,1.883-0.56,2.88c0.479,10.35,3.627,20.351,8.515,29.437c4.889,0.13,9.808,0.232,14.727,0.185
		C559.242,1054.749,556.987,1050.278,556.625,1049.61z"/>
	<path fill="darkgoldenrod" d="M563.827,1018.291c-0.754-0.556-1.511-1.116-2.266-1.682c-1.272,0.317-2.376,1.189-3.331,3.123
		c-1.416,2.867-1.521,7.045-0.894,10.13c1.358,6.686,5.058,12.614,8.001,18.672c0.005,0.011,2.727,5.614,4.11,8.462
		c7.701-0.398,15.337-1.295,22.744-3.195c-1.602-6.899-8.245-16.656-18.942-27.751
		C570.55,1023.25,567.286,1020.844,563.827,1018.291z"/>
	<path fill="darkgoldenrod" d="M1115.838,189.409c-7.087-3.06-14.717-4.785-22.535-5.978c-1.006-0.142-2.024-0.234-3.036-0.345
		c6.596,13.475,9.071,29.285,7.233,44.805c0.202,0.034,0.405,0.059,0.606,0.096c5.117,0.929,10.081,2.781,14.695,5.301
		c4.638,2.488,8.851,5.72,12.598,9.37c3.748,3.656,7.043,7.719,9.992,11.976c2.553,3.823,4.824,7.861,6.75,12.107
		c2.597-13.394,2.49-26.955-0.563-39.85c-2.597-10.962-7.305-21.449-13.656-30.927
		C1124.117,193.364,1120.088,191.138,1115.838,189.409z"/>
	<path fill="darkgoldenrod" d="M1129.318,258.76c-5.329-7.999-11.797-15.12-19.488-20.695c-3.923-2.767-8.231-5.037-12.819-6.723
		c-1.907,11.9-6.315,23.491-13.406,33.529c-1.809,2.561-3.812,4.994-5.939,7.33c2.616,2.729,4.958,5.793,6.814,9.121
		c5.644,10.022,7.214,21.997,5.547,33.283c-1.819,11.28-6.608,21.828-13.232,30.711c-1.173,1.612-2.459,3.124-3.736,4.644
		c19.911-7.777,37.828-22.004,51.076-41.075c6.77-9.746,11.849-20.208,15.187-30.932
		C1136.947,271.197,1133.479,264.802,1129.318,258.76z"/>
	<path fill="darkgoldenrod" d="M1060.847,152.522c5.933,3.263,11.418,7.414,16.769,12.693c3.884,3.834,7.161,8.207,9.953,12.899
		c2.027-0.169,4.063-0.288,6.109-0.295c7.706-0.104,15.476,1.358,22.841,4.061c-8.895-9.216-19.526-16.832-31.301-22.055
		c-6.335-2.809-13.073-4.999-19.588-7.117c-2.267-0.737-4.538-1.474-6.794-2.237c-0.598-0.203-1.233-0.299-1.861-0.402l-0.023-0.002
		c0.026,0.024,0.053,0.047,0.083,0.066C1058.268,150.988,1059.535,151.8,1060.847,152.522z"/>
	<path fill="darkgoldenrod" d="M845.201,156.418c-0.611,4.021-0.565,8.095,0.136,12.02c10.162-20.159,29.733-33.373,46.083-44.4
		c0.026-0.017,0.053-0.036,0.075-0.053c-0.267-0.043-0.59-0.066-0.932-0.036c-10.648,0.861-22.696,3.352-34.857,7.427
		C850.518,139.198,846.348,147.527,845.201,156.418z"/>
	<path fill="darkgoldenrod" d="M1116.365,1042.998c-0.704-2.048-1.288-4.134-1.773-6.245c-1.633-6.978-5.747-14.081-8.909-20.481
		c-2.093-4.237-4.452-11.93-8.838-14.183c-0.505-0.259-1.09-0.445-1.636-0.291c-3.69,1.036-1.866,18.392-1.75,21.465
		c0.283,7.546,0.975,15.068,1.589,22.592l6.996-0.47c4.879-0.334,9.846-0.67,14.833-0.98
		C1116.707,1043.935,1116.526,1043.471,1116.365,1042.998z"/>
	<path fill="darkgoldenrod" d="M1148.875,1036.725c-3.921-11.185-11.445-21.547-18.72-31.571l-1.816-2.508
		c-1.228-1.698-2.709-3.283-4.262-4.895c-1.175,1.4-1.824,3.237-2.273,5.041c-1.245,5.01-1.808,10.275-1.907,15.58
		c-0.125,6.762,0.506,13.593,1.448,20.051c0,0,1.21,3.508,1.942,5.628c2.479-0.138,4.963-0.297,7.432-0.408
		c3.211-0.169,6.534,0.169,9.452,0.462c3.85,0.376,7.835,0.778,9.196-0.357c0.229-0.188,0.541-0.553,0.617-1.493v-0.004
		C1150.085,1040.97,1149.713,1039.109,1148.875,1036.725z"/>
	<path fill="darkgoldenrod" d="M808.267,189.259c5.289,9.969,13.807,18.175,23.922,23.514c2.914,1.542,6.024,2.748,9.22,3.718
		c-3.412-10.03-3.972-20.97-1.555-32.483c0.43-2.046,0.972-4.017,1.578-5.946c-0.989-1.948-1.87-3.957-2.479-6.082
		c-1.55-5.427-1.763-11.124-1.022-16.591c0.815-5.459,2.591-10.748,5.058-15.554c0.842-1.651,1.79-3.227,2.78-4.77
		c-14.832,6.048-29.297,14.477-41.069,25.263c-1.199,4.447-1.864,8.923-1.468,13.25
		C803.714,178.984,805.562,184.332,808.267,189.259z"/>
	<path fill="darkgoldenrod" d="M808.565,628.102c-0.941-3.576-2.073-5.913-2.692-5.203c-0.628,0.702-0.24,4.03,0.711,7.606
		c1.222,4.608,3.914,12.371,5.252,16.146c-0.082,0.025-0.162,0.064-0.244,0.091c0.342-0.116,0.687-0.215,1.038-0.29
		c-0.133,0.029-0.266,0.048-0.397,0.083C811.489,642.208,809.829,632.884,808.565,628.102z"/>
	<path fill="darkgoldenrod" d="M1086.89,1005.908c0.146-2.932,0.466-5.989,2.061-8.453c2.759-4.259,8.141-3.869,11.979-1.393
		c4.538,2.927,7.158,7.65,9.243,12.575c-4.807-12.032-10.026-23.84-14.824-35.905c-3.52-8.85-5.967-17.999-7.82-27.165
		c-1.788-9.187-3.24-18.35-4.6-27.552c-1.076-9.244-2.225-18.464-2.728-27.755c2.152,9.049,4.001,18.121,6.27,27.105
		c2.02,9.019,4.144,18.045,6.559,26.908c2.383,8.866,5.016,17.604,8.535,25.912c3.496,8.298,8.073,16.393,11.729,25.271
		c0.752,2.007,1.256,4.104,1.857,6.137c0.98-3.055,2.691-5.791,5.032-7.95c-1.98-2.161-3.843-4.455-5.172-7.11
		c-3.012-6.016-3.467-12.843-3.903-19.446c-0.147-2.188-0.289-4.361-0.53-6.478c-1.974-17.464-4.38-36.669-7.568-60.431
		c-1.598-11.877-3.233-23.747-4.869-35.616c-3.741-27.119-7.606-55.163-10.892-82.82l-0.643-5.395
		c-7.244-61.061-14.759-124.141-31.939-184.159c-2.376,15.024-5.232,29.941-8.006,44.898c-3.161,15.319-6.506,30.616-10.213,45.85
		c-0.781,3.271-1.611,6.531-2.465,9.786c-0.281,3.119-1.017,6.114-1.823,9.089c-2.666,9.833-6.41,19.774-10.419,29.561
		c-3.012,7.353-6.174,14.618-9.14,21.686c-3.687,8.785-7.715,17.431-12.039,25.914c0.119,0.149,0.274,0.237,0.36,0.435
		c0.361,0.827,0.62,1.729,0.771,2.685c0.203,1.254,0.406,2.47,0.609,3.705c0.689-0.579,1.437-1.21,1.964-1.655
		c0.738-0.756,1.605-1.618,2.674-2.498c2.264-1.599,4.42-3.343,6.527-5.147c2.106-1.804,4.157-3.677,6.113-5.65
		c3.955-3.896,7.741-7.985,11.281-12.302c3.591-4.276,6.873-8.836,9.991-13.528c3.132-4.714,5.969-9.607,8.819-14.616
		c-1.301,5.62-3.298,11.054-5.67,16.363c-2.367,5.296-5.42,10.279-8.616,15.168c-3.226,4.874-6.996,9.374-11.017,13.627
		c-1.989,2.152-4.094,4.192-6.258,6.172c-3.47,3.176-7.614,6.315-11.882,8.836c-0.955,0.564-1.917,1.029-2.877,1.524
		c0.848,5.02,1.698,9.881,2.551,14.596c9.285-5.659,18.653-11.249,27.475-17.617c3.377-2.438,6.561-5.149,9.788-7.838
		c3.252-2.71,6.328-5.587,9.599-8.423c-1.958,3.86-4.475,7.36-6.992,10.908c-2.748,3.335-5.649,6.572-8.73,9.655
		c-3.137,3.017-6.502,5.807-10.04,8.363c-5.716,4.071-11.265,7.298-17.867,9.74c-0.811,0.3-1.496,0.481-2.225,0.704
		c0.778,4.188,1.562,8.266,2.352,12.244c6.973-3.926,13.994-7.745,21.177-11.381c2.979-1.508,5.906-3.124,8.755-4.884
		c3.018-1.551,5.803-3.441,8.826-5.176c-1.88,2.948-4.273,5.45-6.63,8.031c-2.526,2.372-5.172,4.627-7.896,6.783
		c-5.933,4.695-13.983,10.365-21.71,12.501c-0.429,0.119-0.852,0.18-1.278,0.276c0.235,1.142,0.469,2.293,0.705,3.42
		c0.636,3.03,1.314,6.057,1.984,9.085c4.37-2.578,8.706-5.452,13.226-7.987l9.331-5.109c3.265-1.483,6.39-3.177,9.791-4.483
		c-2.447,2.672-5.171,4.958-7.753,7.452l-8.213,6.826c-4.696,3.761-9.563,7.218-14.752,10.543c1.385,6.01,2.846,12.009,4.362,18
		c5.024,5.19,10.992,9.34,18.076,11.256c9.501,2.57,21.904,1.827,30.551-3.304c20.676-12.269-9.302-42.115-25.139-23.477
		c-6.134,7.219-0.806,18.886,8.988,17.41c3.7-0.557,7.009-3.213,8.354-6.704c-1.343,5.461-7.444,9.137-12.977,8.131
		c-5.533-1.006-9.865-6.267-10.179-11.882c-0.768-13.759,16.756-19.9,27.709-16.312c11.51,3.771,19.856,17.813,14.775,29.541
		c-3.859,8.908-12.46,13.237-22.153,14.52c-12.045,1.594-25.777-1.516-34.193-6.394c-0.195-0.113-0.378-0.249-0.571-0.368
		c5.481,20.375,11.683,40.582,18.608,60.422c4.617,13.219,10.17,26.27,15.539,38.891c7.907,18.588,16.084,37.808,21.277,57.66
		c2.384,9.136,2.41,9.121,12.723,8.444l1.905-0.128C1088.346,1033.093,1086.213,1019.466,1086.89,1005.908z"/>
	<path fill="darkgoldenrod" d="M1008.781,751.585c2.573-7.348,4.982-14.749,7.313-22.171c2.035-6.379,3.774-12.681,5.34-19.178
		c5.501-22.824,13.235-45.151,19.394-67.836c4.567-16.823,8.984-33.697,13.769-50.46c-0.372-1.298-0.722-2.603-1.104-3.898
		c-1.015-3.457-1.331-6.91-0.963-10.559c7.422-74.291-3.064-145.727-31.176-212.318c-0.139-0.335-0.297-0.664-0.459-0.994
		c-0.624-1.301-1.402-2.921-1.278-4.967l0.068-1.16l1.06-0.479c0.718-0.4,1.369-0.771,2.192-0.797
		c1.15-0.045,2.324-0.013,3.497,0.023l1.297,0.034c6.023,0.115,13.979,0.12,22.013-0.878c5.219-0.651,10.371-1.756,15.426-3.257
		c0.919-1.254,1.868-2.485,2.733-3.779c1.479-2.184,2.886-4.404,4.185-6.676c5.149-9.084,9.232-18.696,10.681-28.742
		c1.604-9.947,0.468-20.322-3.362-29.679c-1.217-3.012-2.895-5.79-4.813-8.437c-10.269,10.095-23.487,17.713-38.251,22.158
		c0.078,0.32,0.171,0.635,0.242,0.958c0.802,3.683,1.084,7.503,0.845,11.308c-0.249,3.806-1.009,7.594-2.176,11.232
		c-2.49,7.214-6.673,13.875-12.343,18.874c-2.81,2.514-5.9,4.671-9.223,6.351c-2.83,1.414-5.956,2.427-9.074,2.613
		c2.574,4.779,4.98,9.607,6.975,14.575c1.762,4.388,3.337,8.807,4.773,13.293c1.909,0.075,3.855-0.074,5.807-0.475
		c-1.657,0.949-3.463,1.592-5.335,1.98c-8.914,1.846-18.22-1.988-25.282-7.159c-8.876-6.499-15.055-15.221-22.342-21.81
		c-7.136-6.714-15.832-11.664-25.188-15.07c-9.414-3.325-19.557-4.733-30.014-4.341c9.955-3.4,21.078-3.509,31.578-1.062
		c10.569,2.35,20.509,7.706,28.612,15.086c7.948,7.514,13.762,16.076,20.943,22.834c3.538,3.34,7.73,6.049,12.267,7.922
		c2.586,1.068,5.309,1.826,8.148,2.034c-2.442-3.865-4.792-7.751-7.182-11.607c-2.876-4.639-5.664-9.304-8.799-13.677
		c-6.237-8.739-13.107-16.87-21.508-23.051c-8.616-6.476-16.97-8.648-27.39-11.175c-10.266-2.491-22.269-6.805-32.852-7.016
		c12.491,0.249,24.995,0.498,37.438,1.628c13.092,1.189,24.735,8.581,33.897,17.64c1.606,1.588,16.021,18.426,15.141,18.861
		c2.786-1.321,5.22-3.042,7.467-4.96c2.587-2.251,4.972-4.676,7.068-7.293c4.093-5.299,7.463-11.062,9.453-17.321
		c2.163-6.196,2.89-12.785,2.69-19.495c-0.002-0.072-0.009-0.145-0.011-0.217c-8.394,2.039-17.191,3.109-26.176,3.011l-2.083-0.013
		c-5.676-0.03-11.47-0.104-16.88-1.967c-5.718-0.713-11.377-1.843-16.845-3.661c-7.054-2.278-14.034-5.246-19.912-9.823
		c7.175,1.829,14.14,3.263,21.204,4.348c0.844,0.116,1.682,0.218,2.526,0.332c-29.057-24.265-67.164-50.124-112.319-51.617
		c-2.888,0.908-5.753,1.868-8.561,2.988c-5.152,1.933-10.118,4.306-15.07,6.796c-4.931,2.546-9.681,5.457-14.555,8.461
		c3.536-4.52,7.899-8.341,12.605-11.664c4.686-3.378,9.884-6.01,15.251-8.157c1.092-0.412,2.207-0.762,3.316-1.129
		c-4.29-4.833-7.679-10.041-10.148-15.564c-4.575-0.595-9.111-1.708-13.472-3.417c-11.885-4.673-21.88-13.875-28.047-25.179
		c-3.007-5.687-5.141-12.034-5.471-18.709c-0.088-1.798,0.019-3.565,0.209-5.314c-6.568,7.617-11.787,16.191-15.072,25.708
		c2.929,6.874,6.742,13.347,11.509,19.055c4.987,6.284,11.123,11.546,17.828,16.018c3.356,2.261,7.012,4.082,10.845,5.512
		c3.779,1.678,7.819,2.668,12.022,3.587c-4.253,0.747-8.625,0.461-12.986-0.116c-4.297-0.849-8.553-2.168-12.584-4.019
		c-8.081-3.701-15.154-9.478-20.806-16.328c-3.365-4.206-6.254-8.823-8.483-13.732c-0.035,0.186-0.085,0.366-0.118,0.553
		c-2.226,12.462-0.952,25.633,4.201,37.242c2.4,5.406,5.634,10.458,9.676,14.785c7.632,8.168,28.591,17.439,22.091,31.774
		c-0.514-0.599-0.906-1.179-1.265-1.745c-0.414-0.554-0.796-1.095-1.23-1.597c-1.971-2.877-4.567-5.714-6.778-8.114
		c-1.558-1.692-3.153-3.35-4.772-4.974c-0.226-0.227-0.493-0.439-0.73-0.658c-1.728,0.36-3.461,0.709-5.206,0.937
		c-25.465,3.337-50.975-2.527-72.582-8.693c-2.715-0.776-6.046-2.036-9.572-3.369c-3.714-1.405-7.786-2.938-11.9-4.213
		c5.495,3.964,10.294,6.904,16.974,8.542c8.321,2.04,16.974,2.97,24.93,6.314c17.705,7.78,17.875,32.602-0.303,40.286
		c-6.568,2.776-15.24,4.248-22.154,2.084c-0.456-0.141-0.908-0.302-1.355-0.477c-1.105,0.926-1.983,2.024-2.711,3.183
		c-1.257,1.984-1.975,4.134-2.571,6.503c-0.897,3.569-2.436,10.073-5.085,15.504c-2.32,4.757-5.494,8.686-9.832,9.106
		c13.659,6.372,30.066,9.224,45.701,7.553c0.643-0.081,1.181,0.107,1.609,0.252l1.222,0.34l0.756,1.348
		c0.353,0.607,0.733,1.267,1.03,1.963c1.677,3.918,3.978,7.397,6.012,10.285c8.241,11.706,20.63,21.299,29.574,27.285l0.586,0.367
		c0.368,0.222,0.778,0.495,1.186,0.805c9.697,3.212,19.406,5.989,29.241,7.867c12.653,2.256,25.3,3.61,37.721,1.767
		c12.556-1.569,24.932-5.081,36.985-9.449c6.025-2.215,11.841-4.985,17.506-8.035c5.696-3.067,11.094-6.609,16.077-10.973
		c-3.528,5.662-8.486,10.366-13.777,14.489c-5.298,4.128-11.168,7.486-17.156,10.556c-12.029,6.047-25.072,10.025-38.554,11.909
		l-5.097,0.481c-1.709,0.125-3.447,0.155-5.167,0.224c-1.717-0.035-3.438-0.027-5.148-0.111c-1.703-0.131-3.418-0.189-5.107-0.396
		c-6.778-0.711-13.419-2.112-19.844-4.086c-8.949-2.696-17.573-6.293-25.677-10.755l-0.063,0.231
		c-0.519,1.906-1.688,3.316-2.722,4.559c-0.263,0.32-0.53,0.637-0.782,0.963c-39.421,50.977-96.878,90.274-161.783,110.65
		c-41.591,13.058-85.306,18.727-127.58,24.211c-31.86,4.132-64.811,8.405-96.555,15.812c-12.561,2.931-24.021,6.104-35.026,9.702
		c-50.411,16.485-90.926,46.804-114.079,85.371c-0.229,0.382-0.444,0.776-0.658,1.171c-0.752,1.382-1.605,2.948-3.139,4.243
		l-0.613,0.35c-1.76,0.611-3.512,0.545-5.211,0.483l-1.132-0.034c-47.215-0.705-97.916-28.61-127.223-55.951
		c-26.364-24.595-50.242-66.866-38.203-111.748c14.419-53.722,70.973-77.653,115.023-81.822c40.32-3.824,81.249,3.613,119.7,11.55
		c27.36,5.649,55.291,8.956,83.02,9.828c3.019,0.096,6.14,0.229,9.339,0.367c25.66,1.105,57.558,2.468,76.974-15.768
		c7.832-7.354,11.843-17.62,10.475-26.794c-2.057-13.797-12.956-22.822-23.499-31.552c-2.654-2.196-5.29-4.382-7.783-6.625
		c-4.415-3.98-8.869-9.264-12.33-15.007c-0.318,0.27-0.645,0.531-0.944,0.818c-1.612,1.617-3.107,3.326-4.227,5.069
		c-1.119,1.746-1.827,3.578-2.268,5.613c-0.437,2.018-0.618,4.171-0.501,6.375c0.102,2.213,0.45,4.433,0.922,6.759
		c0.452,2.326,1.166,4.672,1.995,7.016c0.596,2.471,1.55,4.829,2.095,7.427c-1.985-1.762-3.561-3.764-5.291-5.766
		c-1.486-2.13-2.911-4.363-4.127-6.796c-2.445-4.86-3.451-10.756-2.263-16.594c0.654-2.884,1.985-5.772,3.838-8.097
		c1.854-2.332,4.055-4.135,6.48-5.528c0.576-0.338,1.185-0.615,1.788-0.904c-1.954-4.049-3.311-8.209-3.737-12.219
		c-2.28,1.317-4.449,2.799-6.345,4.574c-1.932,1.866-3.722,3.863-5.115,6.097l-0.551,0.817l-0.47,0.861
		c-0.304,0.579-0.656,1.127-0.928,1.724c-0.546,1.201-1.096,2.393-1.479,3.658c-0.484,1.224-0.739,2.529-1.096,3.795
		c-0.211,1.307-0.519,2.591-0.605,3.919c-0.183,1.312-0.178,2.645-0.227,3.97c0.063,1.328,0.037,2.662,0.232,3.985
		c0.449,5.316,2.04,10.553,4.466,15.335c1.201,2.41,2.704,4.633,4.323,6.791c1.677,2.148,3.59,4.201,5.562,6.256
		c3.957,4.116,8.497,7.94,12.366,12.53c1.937,2.297,3.722,4.749,5.155,7.41c1.447,2.641,2.517,5.485,2.989,8.394
		c-2.53-5.337-6.23-9.691-10.701-13.269c-4.24-3.804-9.009-7.113-13.632-10.905c-2.305-1.911-4.577-3.939-6.668-6.252
		c-2.064-2.361-3.973-4.904-5.495-7.662c-3.076-5.495-5.044-11.617-5.673-17.924c-0.195-1.572-0.159-3.167-0.194-4.75
		c0.077-1.589,0.116-3.178,0.362-4.756c0.149-1.586,0.542-3.143,0.859-4.704c0.465-1.532,0.848-3.086,1.487-4.561
		c0.538-1.51,1.269-2.944,2.017-4.358c0.375-0.71,0.844-1.376,1.267-2.062l0.653-1.016l0.737-0.953
		c1.903-2.59,4.253-4.785,6.755-6.689c3.046-2.32,6.432-4.116,9.983-5.377c0.568-4.928,2.731-9.152,6.528-12.571
		c-12.96-1.305-26.608,2.816-36.522,11.227c-10.141,8.601-16.421,21.788-17.01,35.096c0.251,1.929,0.576,3.837,1.075,5.695
		c1.556,6.414,4.842,12.349,9.101,17.656c2.129,2.666,4.623,5.097,7.423,7.185c2.674,2.323,5.774,4.091,9.037,5.865
		c-3.737-0.177-7.35-1.352-10.895-2.78c-3.42-1.664-6.656-3.792-9.603-6.319c-5.9-5.066-10.15-12.122-12.178-19.8
		c-0.625-2.589-0.936-5.199-1.112-7.807c-4.874-8.26-6.866-18.858-5.415-30.083c1.267-9.798,4.831-19.094,8.685-27.465
		c-17.355,14.439-26.969,38.384-23.762,60.743c3.564,24.852,22.886,47.133,46.978,54.182l-0.541,1.848l-0.541,1.848
		c-2.339-0.681-9.223,1.508-14.238,3.106c-3.688,1.175-7.174,2.284-9.471,2.568c-7.937,0.987-16.475,1.231-26.115,0.759
		c-22.213-1.094-44.313-5.45-65.687-9.663c-24.555-4.841-49.828-9.821-75.357-9.821c-4.279,0-8.561,0.139-12.851,0.442
		c-63.018,4.457-141.108,34.124-153.779,103.061c-15.197,82.676,63.683,156.33,145.485,177.157
		c8.147,2.075,16.208,3.352,23.969,3.797c1.955,0.113,3.906,0.259,5.858,0.406l2.959,0.218c0.944,0.066,2.335,0.312,3.538,1.681
		l0.59,0.671l-0.188,1.391c-0.053,0.545-0.117,1.222-0.338,1.917c-0.365,1.139-0.767,2.26-1.173,3.384
		c-0.263,0.733-0.526,1.463-0.775,2.196c-4.873,14.268-8.704,29.823-11.708,47.565c-1.572,9.268-2,18.957-2.451,29.213
		c-0.955,21.698-1.944,44.132-14.58,62.051c-15.321,21.735-39.271,41.67-69.255,57.645c-10.651,5.673-18.742,11.783-23.615,23.149
		c-7.993,18.633-14.107,39.177-17.682,59.412c-4.158,23.547-1.714,42.192,8.433,64.364c1.169,2.56,2.354,5.854,3.606,9.339
		c4.452,12.403,10.55,29.386,22.416,29.965l6.583,0.318c-4.723-10.196-4.308-27.074-3.354-36.72
		c0.437-4.422,2.967-9.429,8.066-8.843c0.691,0.07,1.51,0.306,1.994,0.481c-4.789-15.602-1.819-32.354,2.728-47.718
		c2.416-8.163,5.495-16.118,8.896-23.917c3.099-7.105,7.88-14.239,10.227-21.582c-2.479,7.756-4.882,15.529-7.268,23.312
		c-6.792,22.147-15.395,47.223-6.8,70.115c0.677,1.801,1.211,3.401,1.648,4.806l0.059,0.197l0.229,0.527
		c-0.588-1.35,0.174-4.124,1.389-6.48c0.784-1.52,1.754-2.847,2.674-3.524c-1.509-1.918-2.416-4.271-1.988-7.418
		c3.213-23.657,10.405-59.611,25.665-80.151c-0.985-0.586-1.95-1.212-2.882-1.896c-12.477-9.16-17.922-30.983-2.419-40.413
		c6.45-3.924,18.738-3.37,19.329,6.404c0.078,1.287-0.121,2.58-0.626,3.726c-0.498,1.145-1.326,2.121-2.33,2.711
		c1.537-1.804,1.621-4.177,0.994-6.092c-2.011-6.174-9.949-5.661-14.154-2.13c-6.21,5.213-6.852,13.834-3.921,20.964
		c1.165,2.834,2.545,4.855,4.781,6.78c1.021,0.879,3.515,2.7,5.973,4.357c4.548-4.641,9.703-7.986,15.563-9.45
		c7.407-2.855,14.763-5.996,22.133-9.439c-1.624-2.215-3.247-4.423-4.638-6.799c-2.529-4.32-4.707-8.77-6.693-13.264
		c-1.742-4.62-3.517-9.162-4.819-13.912c1.118,4.076,5.231,8.755,7.689,12.435c0.156,0.233,0.305,0.462,0.446,0.687
		c3.695,5.881,7.542,11.624,11.894,17.045c0.38,0.474,0.8,0.943,1.252,1.363c8.494-4.132,17.034-8.709,25.706-13.756
		c-7.556-3.911-14.068-9.806-18.681-16.951c-4.997-7.74-6.015-17.071-10.314-24.877c3.579,6.499,6.894,13.107,11.05,19.036
		c2.075,2.96,4.347,5.673,6.872,8.12c2.628,2.546,5.53,4.804,8.77,6.75c1.487,0.893,4.98,3.434,7.918,4.602
		c14.28-8.596,28.993-18.529,44.565-30.061c-6.362-0.82-12.63-2.355-18.52-4.822c-4.088-1.714-8.022-3.747-11.765-6.062
		c-3.726-2.345-7.25-4.98-10.546-7.853c-6.44-5.916-11.961-12.79-15.868-20.445c5.298,6.738,11.288,12.769,18.132,17.645
		c3.405,2.426,6.898,4.712,10.579,6.639c3.698,1.895,7.526,3.497,11.441,4.782c7.805,2.657,15.972,3.957,24.154,4.079
		c0.149,0,0.299-0.011,0.449-0.012c2.076-1.58,4.155-3.164,6.264-4.801c4.076-3.166,7.922-6.275,11.663-9.294
		c10.642-8.597,20.377-16.415,31.855-22.801c6.322-6.55,15.377-14.62,18.834-18.347c5.244-5.654,10.439-11.357,15.387-17.273
		c0.01-0.013,7.997-9.561,7.997-9.561c5.98-7.475,14.012-13.898,20.345-21.245c6.812-7.902,14.321-15.213,20.582-23.582
		c9.592-12.818,16.395-27.372,22.827-41.954c2.012-4.562,3.869-9.195,5.52-13.9c8.151-23.214,11.799-49.909,0.158-72.636
		c-9.944-19.413-31.098-30.268-52.699-28.034c-22.042,2.28-45.14,20.528-51.292,42.16c-2.82,9.916-0.181,22.144,8.693,27.392
		c10.225,6.046,42.634-2.344,31.652-18.606c-2.207-3.267-7.073-4.663-10.368-2.499c3.655-2.904,9.615-1.392,12.216,2.486
		c2.6,3.878,2.164,9.252-0.195,13.282c-2.358,4.03-6.337,6.875-10.536,8.916c-6.882,3.344-15.027,4.79-22.241,2.241
		c-6.529-2.308-11.71-7.763-14.376-14.155c-6.882-16.498,2.524-34.778,13.678-46.866c9.862-10.687,22.916-18.799,37.514-21.77
		c7.264-1.503,14.787-1.682,22.138-0.555c22.811,3.446,40.481,20.557,47.707,42.074c1.17,3.485,2.079,7.045,2.784,10.643
		c0.109,0.62,0.206,1.244,0.305,1.867c1.62-3.01,3.441-5.926,5.497-8.643c6.263-8.279,16.612-14.292,25.004-8.183
		c8.392,6.109,1.197,14.19-8.407,18.129c-8.622,3.537-15.704,10.679-21.168,18.144c-0.215,3.772-0.636,7.522-1.252,11.224
		c-1.681,10.214-4.655,20.053-8.337,29.549c1.256-3.238,6.164-6.949,8.616-9.379c11.927-11.814,30.882-26.825,48.597-17.978
		c6.323,3.158,12.865,10.248,10.071,17.829c-3.264,8.854-16.277,11.547-24.417,12.248c-13.899,1.197-27.33,8.096-38.776,15.743
		c-7.963,5.319-18.883,12.767-24.122,20.967c-1.801,2.819-3.659,5.6-5.584,8.334c-0.438,0.624-0.892,1.234-1.338,1.853
		c8.886-5.387,19.14-10.258,29.809-12.637c12.471-2.781,26.972-0.182,29.981,12.235c3.011,12.417-10.178,14.27-22.328,10.318
		c-16.045-5.219-35.187-0.475-48.845,4.663c-4.533,5.382-9.258,10.583-14.082,15.644c6.258-3.06,12.94-5.615,19.792-7.143
		c12.47-2.782,26.971-0.182,29.981,12.235c3.011,12.417-10.178,14.27-22.328,10.318c-15.287-4.973-33.379-0.9-46.867,3.939
		c-4.02,3.887-22.685,22.47-36.005,35.539c3.415-1.487,6.946-2.899,10.781-4.133c3-0.971,5.926-0.803,8.697,0.479
		c13.979-3.893,28.292-6.852,42.837-8.093c7.834-0.668,15.713-1.232,23.602-1.102c3.944-0.021,7.896-0.125,11.832,0.16l8.874,0.443
		h2.7c17.675,1.138,34.591,4.598,51.354,9.804c5.958,1.85,11.655,4.403,17.351,6.925c5.456,2.416,9.98,4.664,15.914,5.582
		c23.25,3.597,46.342,10.765,68.962,17.122c16.344,4.594,33.83,10.042,55.032,17.145l0.966,0.297
		c1.323,0.395,2.798,0.871,4.106,1.945c0.593-4.984,1.646-13.366,1.808-14.984c0.206-1.932,0.405-3.863,0.546-5.8
		c2.609-25.359,1.898-50.8-1.542-76.04c-1.259-9.235-2.253-19.193-5.776-27.888c-4.907-12.111-16.747-19.235-29.368-13.377
		c-10.624,4.931-17.203,16.977-19.907,27.899c-2.415,9.755,0.088,26.101,14.316,19.491c3.414-1.587,6.447-4.253,8.292-7.712
		c-1.444,3.649-4.246,6.762-7.723,8.814c-1.743,1.026-3.706,1.742-5.783,2.015c-7.115,0.934-12.284-4.58-13.461-11.157
		c-0.745-4.162-0.356-8.351,0.353-12.293c1.421-7.894,4.23-15.8,9.334-22.491c7.283-9.548,19.691-14.77,31.585-12.345
		c28.474,5.806,26.566,46.391,27.411,68.368c0.13,3.387,0.144,6.776,0.162,10.162c-0.071,15.79-1.321,31.545-3.726,47.09
		c-1.354,8.359-3.318,16.538-4.847,24.75c0.004,0.178,0.012,0.363,0.014,0.531l0.015,0.617c0.332,9.895,0.924,19.885,1.764,30.042
		c0.838,1.113,1.745,2.175,2.752,3.139c12.662,12.122,36.495,8.075,41.012-10.139c0.181-0.731,0.406-1.449,0.522-2.19l-0.003-0.246
		c0-7.023-0.735-14.588-5.553-20.096c-4.655-5.321-14.606-9.035-20.864-4.426c-3.864,2.846-5.111,8.356-3.838,12.982
		c0.953,3.46,3.298,6.669,6.636,7.986c3.338,1.317,7.632,0.326,9.552-2.706c1.92-3.032,0.553-7.805-2.878-8.856
		c3.268,0.17,5.38,4.016,4.778,7.233c-0.659,3.52-3.811,6.314-7.337,6.942c-3.526,0.628-7.251-0.741-9.845-3.211
		c-2.594-2.469-4.115-5.931-4.634-9.475c-0.608-4.153,0.161-8.605,2.649-11.985c3.634-4.936,10.469-6.82,16.485-5.648
		c8.155,1.59,15.355,7.784,18.884,15.19c3.248,6.818,3.703,14.851,0.206,21.984c-5.541,11.301-19.025,19.627-31.749,17.049
		c-6.652-1.347-12.516-5.443-16.547-10.887c2.697,31.06,7.798,63.802,15.674,100.756c2.515,11.806,2.891,22.514,3.29,33.849
		c0.109,3.075,0.218,6.192,0.372,9.384c0.432,8.817,0.432,8.817,9.877,9.388l0.38,0.023c0.165-7.991,1.335-15.963,3.608-23.627
		c1.834-6.184,5.567-14.974,13.749-13.127c0.207,0.05,0.407,0.117,0.608,0.181c-0.379-0.935-0.797-1.938-1.199-3.059
		c-9.662-26.919-3.146-55.992,5.549-82.302c2.889-8.743,5.797-17.462,9.407-25.918c-2.528,5.922-3.15,13.645-4.526,19.945
		c-1.385,6.341-2.888,12.657-4.219,19.011c-2.85,13.615-5.181,27.468-5.166,41.417c0.013,11.971,5.941,22.119,7.88,33.728
		c0.139,0.832,0.251,1.623,0.315,2.385c0.024,0.291,0.033,0.549,0.05,0.829c0.2-0.3,0.399-0.601,0.612-0.894
		c2.921-4.006,7.031-7.19,11.779-8.637c-2.111-4.082-4.391-8.152-6.861-12.2c-0.778-1.271-1.658-2.715-2.241-4.328
		c-2.214-6.17,0.681-14.223,3.233-21.329c0.91-2.527,1.767-4.91,2.282-6.925c2.824-11.08,6.245-22.126,9.512-32.492
		c4.35-13.825,8.711-27.646,13.148-41.444c0.132-0.41,0.252-0.835,0.372-1.26c0.485-1.711,1.038-3.651,2.429-5.286l0.511-0.421
		c1.217-0.701,2.442-0.762,3.495-0.679c2.063-11.121,4.296-22.21,6.7-33.262c1.668-7.641,10.043-42.838,10.043-42.838l0.004-0.262
		c-0.075-2.711,0.509-5.243,1.1-7.773c0.7-2.211,1.416-4.417,2.596-6.493l2.958-9.627c2.357-7.462,4.641-14.926,7.238-22.395
		c2.609-7.45,5.613-14.857,9.518-21.836c4.031-6.897,9.018-13.315,15.05-18.526c6.018-5.195,13.217-9.141,20.912-10.691
		c-7.434,2.498-13.967,6.927-19.347,12.37c-5.384,5.474-9.664,11.897-12.902,18.812c-6.766,13.727-10.117,28.98-14.13,44.073
		l-2.511,9.722c-0.075,2.377-0.595,4.629-1.128,6.877c-0.797,2.463-1.589,4.927-3.023,7.217l-0.129,0.227l-5.778,19.649
		l-15.838,54.918c0.834,0.119,1.601,0.241,2.346,0.367c1.09,0.18,2.181,0.365,3.279,0.489c3.788,0.433,7.668,0.828,11.61,1.172
		c2.352-7.663,4.479-15.395,6.733-23.109c1.486-4.947,2.782-9.956,4.238-14.925c1.463-4.993,2.853-9.984,4.513-14.966
		c-0.016,5.253-0.582,10.435-0.979,15.66c-0.669,5.175-1.432,10.341-2.267,15.503c-1.307,7.547-3.122,14.985-5.076,22.389
		c2.865,0.191,5.757,0.348,8.676,0.461c0.308-0.664,0.626-1.324,0.927-1.992c1.833-4.138,3.578-8.317,5.33-12.513
		c1.771-4.19,3.309-8.486,4.93-12.764c1.631-4.305,3.105-8.644,4.801-13.003c-0.061,4.678-0.738,9.276-1.319,13.924
		c-0.872,4.574-1.896,9.132-3.063,13.666c-1.2,4.363-2.69,8.644-4.329,12.865c4.159,0.05,8.357-0.005,12.578-0.177
		c1.301-2.983,2.519-6.018,3.789-9.064c1.438-3.288,2.749-6.656,4.05-10.039c1.547-3.318,2.802-6.738,4.516-10.04
		c-0.101,3.719-0.665,7.322-1.044,10.997c-0.653,3.602-1.322,7.214-2.144,10.819c-0.556,2.331-1.247,4.635-1.998,6.924
		c3.874-0.29,7.761-0.706,11.648-1.239c0.909-2.068,1.807-4.135,2.756-6.195c1.393-2.87,2.708-5.783,3.983-8.723
		c1.534-2.861,2.742-5.837,4.385-8.719c-0.034,3.314-0.563,6.519-0.946,9.786c-0.636,3.189-1.323,6.377-2.098,9.549
		c-0.275,1.08-0.658,2.125-0.981,3.189c25.528-4.588,50.729-15.253,72.148-36.944c15.923-16.126,28.819-31.936,39.421-48.336
		c2.677-4.139,5.241-8.354,7.805-12.565c1.504-2.47,3.008-4.94,4.534-7.396c0.192-0.305,0.353-0.632,0.523-0.955
		c0.579-1.135,1.305-2.549,2.884-3.433l0.936-0.523l0.803,0.445C1002.46,769.155,1005.741,760.41,1008.781,751.585z
		 M431.739,604.247c17.789,14.833,21.905,40.064,17.675,61.81c-2.187,11.243-6.325,22.001-12.544,31.639
		c-3.256,5.046-7.03,9.76-11.253,14.031c-3.842,3.886-9.078,6.673-12.726,10.573c26.644-28.487,46.485-82.252,16.426-115.515
		c-4.061-4.483-8.989-8.307-14.727-10.966C420.804,597.026,426.745,600.072,431.739,604.247z M408.137,694.969
		c0.804-1.74,1.571-3.481,2.269-5.222c2.647-6.609,5.55-12.915,7.262-19.873c0.735-3.445,1.025-6.959,0.924-11.042
		c2.934,2.927,4.327,7.153,4.695,11.307c0.757,8.53-2.766,16.303-8.113,22.623c-1.359,1.606-2.836,3.118-4.39,4.525
		c-0.79,0.714-4.327,2.542-4.507,3.36C406.724,698.615,407.553,696.864,408.137,694.969z M326.625,613.335
		c4.328-0.423,8.642,0.499,12.364,2.779c0.794,0.487,5.267,4.921,5.261,4.922c-4.286,0.86-9.128,0.775-13.874,0.022
		c-4.742-0.752-9.388-2.172-13.287-3.982C317.307,617.177,324.875,613.506,326.625,613.335z M298.732,634.859
		c4.38-1.457,9.823-1.626,14.406-1.76c10.266-0.301,20.458,2.064,28.274,9.055c-8.518-0.024-17.168-0.895-25.773-1.694
		c-8.576-0.796-17.175-0.848-25.762-1.464C292.798,639.206,296.006,635.766,298.732,634.859z M280.816,682.919
		c4.106-4.105,9.842-3.48,13.948,0.626c7.287,7.287,10.507,23.828,10.507,23.828s-16.413-3.239-23.608-10.433
		C277.557,692.835,276.71,687.024,280.816,682.919z M349.849,802.648c-18.314,13.314-43.089,15.774-64.384,8.981
		c-17.931-5.721-36.286-16.443-45.328-33.599c-3.213-6.096-2.896-11.861-4.527-18.191c3.482,13.519,13.301,24.781,24.997,32.404
		c22.937,14.949,53.467,21.684,79.772,12.207c2.881-0.94,5.686-2.132,8.439-3.478c2.73-1.388,5.389-2.942,8.042-4.602
		C354.743,798.667,352.376,800.751,349.849,802.648z M281.295,750.288c7.287-7.287,23.829-10.507,23.829-10.507
		s-3.239,16.414-10.433,23.609c-4.106,4.105-9.915,4.952-14.021,0.847C276.564,760.13,277.19,754.394,281.295,750.288z
		 M362.893,764.269c-4.106,4.105-9.842,3.479-13.948-0.626c-7.287-7.287-10.507-23.829-10.507-23.829s16.414,3.239,23.608,10.434
		C366.152,754.353,366.999,760.162,362.893,764.269z M379.525,723.377c0,11.076-8.979,17.771-20.056,17.771
		c-8.807,0-19.071-3.66-27.662-7.658c4.047,8.663,7.756,19.031,7.756,27.961c0,11.076-6.894,19.658-17.97,19.658
		c-11.076,0-17.772-8.979-17.772-20.055c0-8.808,3.66-19.071,7.658-27.661c-8.663,4.047-19.031,7.756-27.961,7.756
		c-11.076,0-19.658-6.894-19.658-17.97c0-11.076,8.979-17.772,20.055-17.772c8.808,0,19.071,3.661,27.662,7.658
		c-4.047-8.663-7.756-19.031-7.756-27.961c0-11.076,6.894-19.658,17.97-19.658c11.076,0,17.772,8.979,17.772,20.055
		c0,8.808-3.661,19.071-7.658,27.662c8.663-4.048,19.032-7.757,27.961-7.757C370.943,705.406,379.525,712.301,379.525,723.377z
		 M364.019,680.952c4.106,4.105,3.481,9.842-0.625,13.948c-7.287,7.287-23.829,10.507-23.829,10.507s3.239-16.414,10.433-23.608
		C354.103,677.692,359.913,676.846,364.019,680.952z M512.75,573.029c-3.602,3.601-9.442,3.601-13.044,0
		c-3.602-3.602-3.602-9.442,0-13.044c3.602-3.602,9.442-3.602,13.044,0C516.352,563.587,516.352,569.427,512.75,573.029z
		 M1021.605,565.375c-1.353,4.903-6.145,6.769-11.048,5.416c-8.591-2.372-18.152-13.477-18.152-13.477s13.995-4.697,22.696-2.295
		C1020.003,556.373,1022.959,560.473,1021.605,565.375z M1003.545,622.695c-5.175,3.76-12.368,2.873-16.909-1.797
		c-4.771,2.448-10.878,0.952-14.283-3.736c-1.464-2.015-2.215-4.331-2.286-6.606c3.41,1.911,7.927,2.288,12.613,1.14
		c3.062-0.744,6.199-2.145,9.133-4.206c0.154-0.096,0.305-0.206,0.457-0.316c0.239-0.174,0.479-0.357,0.71-0.532
		c2.742-2.118,4.951-4.592,6.554-7.191c2.611-4.209,3.631-8.759,2.749-12.662c2.269,0.741,4.366,2.211,5.909,4.334
		c3.476,4.785,2.915,11.219-1.109,14.973C1010.092,611.85,1008.705,618.946,1003.545,622.695z M1039.635,512.253
		c1.977,6.084-1.089,12.651-6.934,15.527c0.854,5.293-2.455,10.639-7.966,12.429c-2.37,0.77-4.803,0.768-6.989,0.133
		c2.871-2.652,4.625-6.833,4.982-11.644c0.239-3.142-0.125-6.558-1.178-9.985c-0.043-0.176-0.102-0.354-0.159-0.532
		c-0.092-0.281-0.191-0.566-0.287-0.84c-1.166-3.263-2.837-6.128-4.813-8.455c-3.196-3.784-7.208-6.16-11.193-6.527
		c1.406-1.929,3.452-3.469,5.948-4.281c5.626-1.827,11.571,0.695,13.898,5.681C1031.344,502.676,1037.664,506.187,1039.635,512.253z
		 M1027.053,458.991c-6-9.048-11.999-18.536-21.85-23.426c-6.272-3.304-13.333-4.979-20.66-5.982
		c-7.359-0.94-14.985-0.829-22.805-1.068c7.323-2.744,15.064-4.339,23.072-4.551c7.996-0.315,16.292,1.354,23.731,5.063
		c7.139,3.559,12.813,9.543,16.708,16.442c1.898,3.362,3.171,6.892,4.433,10.522c1.148,3.301,2.015,9.876,4.137,12.499
		C1031.439,465.546,1029.246,462.298,1027.053,458.991z M992.438,489.545c-4.91,7.437-18.427,13.1-18.427,13.1
		s-0.142-14.762,4.831-22.294c2.802-4.245,7.615-5.789,11.859-2.987C994.946,480.166,995.24,485.3,992.438,489.545z
		 M1023.935,414.369c3.907,3.261,6.51,7.639,6.588,13.238c-0.047-3.375-9.843-8.297-12.283-9.471
		c-7.093-3.413-14.671-4.448-22.407-5.294c-4.477-0.49-9.116-0.732-13.868-1.758c4.427-1.985,8.985-3.171,13.742-3.867
		C1004.181,405.978,1016.451,408.122,1023.935,414.369z M881.775,246.848c6.459,0.576,12.884,2.757,18.59,6.27
		c5.668,3.686,10.431,8.814,13.151,14.961c1.342,3.066,2.27,6.293,2.682,9.557c0.153,3.305,0.01,6.601-1.15,9.6
		c-0.501-3.14-1.102-6.084-2.357-8.781c-0.993-2.745-2.401-5.294-4.093-7.595c-3.368-4.587-7.411-8.615-12.158-11.538
		c-4.729-3.102-10.115-5.167-15.748-6.954c-5.675-1.708-11.653-2.718-17.879-3.915C868.898,246.624,875.336,246.186,881.775,246.848
		z M850.85,263.441c6.778-1.952,14.074-2.073,21.089-0.771c6.984,1.462,13.682,4.361,19.208,8.745
		c2.753,2.195,5.276,4.628,7.53,7.254c2.061,2.812,4.028,5.642,5.274,8.851c-2.594-2.232-5.008-4.459-7.762-6.247
		c-2.561-1.975-5.287-3.687-8.119-5.119c-5.642-2.867-11.472-5.155-17.558-6.282c-6.054-1.288-12.318-1.394-18.629-0.9
		c-6.327,0.594-12.591,2.193-19.013,4.463C837.7,268.57,844.087,265.292,850.85,263.441z M863.53,293.885
		c-0.85-2.184-2.502-3.791-4.581-4.718c0.225,0.008,0.458,0.023,0.674,0.036c17.428,1.228,25.543,9.598,25.118,12.444
		c0,0-14.388,7.991-30.352,8.205c0.461-0.16,0.908-0.359,1.365-0.577C862.152,306.168,865.63,299.279,863.53,293.885z
		 M848.385,289.643c-0.089,0.035-0.161,0.07-0.242,0.112c-6.398,3.108-9.875,9.997-7.784,15.385c0.586,1.48,1.518,2.695,2.714,3.603
		c-13.205-2.656-21.566-9.19-21.443-11.535C821.631,297.206,834.429,291.459,848.385,289.643z M797.631,307.058
		c0.076-0.203,4.617,3.707,5.096,4.242c2.089,2.33,3.827,5.066,4.573,8.135c0.21,0.883,0.44,1.768,0.692,2.655
		c0.047,1.049,0.314,1.945,0.247,3.157c-0.044,0.791-6.625-3.455-6.941-3.77c-0.898-0.896-1.691-1.909-2.342-3.005
		c-0.968-1.631-1.62-3.447-1.831-5.335C796.909,311.215,796.817,309.239,797.631,307.058z M784.088,305.333
		c4.596,2.843,9.859,9.452,10.429,14.834c0.109,1.033,0.388,1.894,0.266,2.906c-3.845,0.107-7.366-2.728-9.45-6.212
		c-1.041-1.74-1.723-3.642-1.907-5.419C783.223,309.49,783.178,307.479,784.088,305.333z M813.802,355.133
		c-3.284,5.411-10.92,7.214-16.708,4.69c3.108,1.671,5.758,4.192,7.558,7.229c1.353,2.281,2.095,5.693-0.605,7.34
		c-3.989,2.434-12.697-2.263-16.001-4.416c2.348,3.11,5.348,11.352,1.236,14.266c-2.705,1.917-7.775,0.083-10.206-1.506
		c-5.088-3.328-9.148-8.201-13.013-12.821c-5.254-6.28-9.521-13.39-12.545-21c4.77,5.1,9.64,10.272,15.025,14.692
		c3.923,3.22,8.121,6.039,12.753,8.14c-6.442-7.424-12.193-15.449-17.151-23.936c10.692,7.279,21.499,14.62,33.542,19.341
		c-9.07-7.531-18.525-14.598-28.317-21.164c5.066,0.663,9.856,2.519,14.904,3.465c5.316,0.997,10.727,1.489,16.136,1.46
		c-11.359-3.677-22.896-7.44-32.742-14.194c10.215,1.173,20.65,3.719,30.946,2.347c2.997-0.399,6.071-1.026,9.005-0.294
		C814.194,340.415,817.318,349.34,813.802,355.133z M853.977,382.951c5.383,3.333-7.404,7.032-9.345,7.223
		c-4.633,0.456-9.431-0.025-13.985-0.913c-4.497-0.876-8.446-3.085-12.803-4.538c8.279,2.313,17.01,2.998,25.55,2.008
		c-7.255-4.38-15.442-6.922-23.538-9.423c10.133-0.278,20.635-0.643,29.711-5.155c-8.47-0.568-16.94-1.136-25.41-1.704
		c6.815-3.273,13.337-7.153,19.466-11.579c-4.382,1.531-8.764,3.063-13.146,4.594c-2.007,0.701-4.082,1.412-6.203,1.263
		c4.621-2.459,9.004-5.362,13.076-8.651c3.435-2.775,6.529-7.047,10.498-9.011c1.754-0.868,4.244-0.61,5.212,1.088
		c0.463,0.813,0.503,1.795,0.458,2.729c-0.247,5.146-2.825,10.137-6.884,13.323c1.5-0.537,3.448-1.053,5.242-1.061
		c2.471-0.011,4.65,0.943,4.965,4.136c0.403,4.093-3.776,14.617-9.243,13.316C849.873,381.139,851.958,381.7,853.977,382.951z
		 M899.703,370.387c-0.716,3.34-3.885,5.876-7.506,7.331c-3.03,1.218-6.168,1.242-9.365,1.647c-3.24,0.41-7.17-0.044-10.283,0.772
		c6.415-1.68,12.454-4.779,17.559-9.01c-5.41,0.604-10.82,1.208-16.23,1.812c3.519-2.663,7.033-5.331,10.543-8.005
		c3.109-2.369,6.266-4.794,8.523-7.986c-6.712,3.528-13.533,7.096-20.955,8.647c5.502-5.193,10.526-10.892,14.991-16.999
		c-3.161,2.204-6.323,4.409-9.484,6.613c-2.525,1.761-5.202,3.58-8.267,3.868c4.396-3.436,8.456-7.301,12.109-11.518
		c2.245-2.592,6.1-10.59,10.351-9.486c1.417,0.368,2.274,1.654,2.391,2.903c0.118,1.248-0.352,2.477-0.815,3.667
		c-1.178,3.022-2.442,6.166-5.119,8.403c4.225-3.53,13.268-7.546,10.746,1.333c-1.292,4.551-4.218,9.106-6.958,12.932
		C896.083,365.227,900.704,365.722,899.703,370.387z M882.482,324.927c-14.601,4.712-30.763,6.312-45.322,0.567
		c-9.963-3.745-18.974-10.064-25.057-18.445c8.225,6.207,17.25,10.678,26.744,13.079c20.025,5.063,43.905,0.053,62.129-9.119
		c7.232-3.64,13.882-8.85,17.967-15.839c-0.676,2.527-1.644,4.866-2.853,7.032C909.217,314.524,895.318,320.784,882.482,324.927z
		 M918.061,364.586c-3.281-4.002-5.85-8.363-8.24-12.807c3.706,6.893,15.277,14.396,22.255,17.859
		c8.374,4.154,17.481,7.115,26.539,9.343c19.204,4.724,40.193,6.218,59.421,0.81c-18.371,10.151-39.254,10.547-59.376,6.049
		C943.98,382.559,927.802,376.682,918.061,364.586z M956.237,409.457c-1.873,1.872-4.909,1.872-6.782,0
		c-1.873-1.873-1.873-4.91,0-6.782c1.873-1.873,4.909-1.873,6.782,0C958.11,404.548,958.11,407.584,956.237,409.457z
		 M933.133,455.149c0.948-6.422,6.239-11.347,12.618-11.347c6.397,0,11.695,4.945,12.624,11.392
		c5.298,0.824,9.359,5.623,9.359,11.417c0,2.491-0.754,4.806-2.034,6.688c-1.636-3.55-5.069-6.511-9.535-8.336
		c-2.914-1.198-6.276-1.908-9.86-1.965c-0.181-0.012-0.368-0.012-0.555-0.012c-0.295,0-0.597,0.006-0.887,0.012
		c-3.464,0.101-6.704,0.805-9.529,1.965c-4.586,1.87-8.086,4.951-9.667,8.628c-1.4-1.933-2.233-4.355-2.233-6.98
		C923.436,460.696,927.672,455.821,933.133,455.149z M897.448,479.558c3.977-3.17,8.951-1.863,12.122,2.113
		c5.556,6.968,6.764,21.572,6.764,21.572s-14.083-4.426-19.71-11.484C893.453,487.783,893.472,482.729,897.448,479.558z
		 M909.824,510.411c10.197,3.313,20.678,12.772,27.988,20.532c-5.178-9.418-10.999-22.41-10.999-33.27
		c0-11.016,7.243-19.551,18.878-19.551c11.636,0,18.671,8.93,18.671,19.946c0,10.722-5.757,23.612-10.879,32.963
		c7.357-7.835,17.915-17.386,28.243-20.742c10.477-3.404,20.832,0.846,24.428,11.913c3.596,11.067-2.724,20.516-13.2,23.92
		c-10.197,3.313-24.236,1.821-34.712-0.16c9.725,4.575,22.071,11.665,28.454,20.451c6.475,8.912,5.632,20.075-3.781,26.914
		c-9.414,6.84-20.354,3.75-26.829-5.162c-6.302-8.674-9.221-22.487-10.574-33.062c-1.346,10.663-4.274,24.596-10.657,33.382
		c-6.475,8.912-17.351,11.56-26.764,4.721c-9.414-6.839-9.856-18.199-3.381-27.111c6.302-8.674,18.537-15.719,28.176-20.273
		c-10.557,2.014-24.712,3.535-35.041,0.18c-10.477-3.404-16.356-12.93-12.76-23.996C888.68,510.937,899.347,507.007,909.824,510.411
		z M882.979,591.125c1.464-2.015,3.435-3.444,5.577-4.215c-0.764,3.834,0.274,8.247,2.813,12.349
		c1.654,2.683,3.955,5.232,6.822,7.386c0.139,0.117,0.29,0.226,0.442,0.336c0.239,0.174,0.487,0.346,0.725,0.511
		c2.862,1.954,5.897,3.289,8.864,4.011c4.809,1.183,9.452,0.747,12.892-1.298c-0.004,2.387-0.753,4.836-2.296,6.959
		c-3.477,4.785-9.77,6.239-14.583,3.573c-4.541,4.639-11.718,5.513-16.878,1.764c-5.175-3.76-6.555-10.874-3.517-16.637
		C880.037,602.082,879.573,595.812,882.979,591.125z M870.718,568.926c-1.786-4.762,0.994-9.089,5.755-10.876
		c8.345-3.131,22.608,0.234,22.608,0.234s-8.562,12.025-17.013,15.196C877.306,575.267,872.505,573.687,870.718,568.926z
		 M906.574,643.547c16.48-3.52,27.858,12.23,31.68,28.643c9.597,41.21-8.331,90.448-8.331,90.448s-6.253-71.536-22.85-86.653
		C894.615,664.637,890.095,647.067,906.574,643.547z M938.887,613.129c-0.399-8.904,7.207-21.429,7.207-21.429
		s8.792,11.859,9.196,20.876c0.228,5.081-2.758,9.159-7.839,9.387C942.371,622.191,939.115,618.21,938.887,613.129z
		 M948.781,649.982c3.602-3.602,9.442-3.602,13.044,0c3.602,3.601,3.602,9.441,0,13.043s-9.442,3.602-13.044,0
		C945.179,659.424,945.179,653.584,948.781,649.982z M880.124,498.078c2.37,0.77,4.337,2.203,5.733,4.001
		c-3.882,0.458-7.758,2.809-10.875,6.491c-2.04,2.402-3.754,5.38-4.916,8.771c-0.068,0.169-0.125,0.346-0.183,0.524
		c-0.091,0.281-0.179,0.57-0.262,0.848c-0.974,3.325-1.306,6.625-1.075,9.669c0.361,4.94,2.21,9.221,5.219,11.86
		c-2.272,0.734-4.832,0.778-7.328-0.034c-5.625-1.828-8.952-7.363-7.904-12.765c-5.815-2.885-8.864-9.441-6.893-15.507
		c1.977-6.083,8.317-9.594,14.736-8.485C868.795,498.667,874.613,496.288,880.124,498.078z M854.8,580.717
		c-3.602,3.602-9.442,3.602-13.044,0s-3.602-9.442,0-13.044c3.602-3.601,9.442-3.601,13.044,0
		C858.402,571.275,858.402,577.115,854.8,580.717z M845.682,444.197c1.873-1.872,4.909-1.872,6.782,0
		c1.873,1.873,1.873,4.909,0,6.782c-1.873,1.872-4.909,1.872-6.782,0C843.809,449.106,843.809,446.069,845.682,444.197z
		 M834.782,484.644c3.755-5.151,8.912-9.204,14.681-11.552c5.725-2.402,11.996-3.425,17.971-2.583
		c-5.885,1.184-11.396,3.086-16.308,5.944c-4.856,2.902-9.206,6.528-12.366,11.042c-3.228,4.423-5.197,9.735-6.072,15.26
		c-0.442,2.77-0.511,5.627-0.149,8.46c0.189,2.879,0.969,5.695,1.977,8.53c-1.979-2.297-3.3-5.11-4.327-8.036
		c-0.857-2.975-1.271-6.1-1.257-9.244C828.974,496.165,831.096,489.877,834.782,484.644z M821.211,473.68
		c1.327-0.626,2.766-1.072,4.266-1.123c1.48-0.063,3.059,0.376,4.051,1.364c-1.39-0.029-2.512,0.385-3.523,0.915
		c-1.008,0.539-1.936,1.206-2.749,1.99c-1.659,1.598-3.083,3.31-4.271,5.225c-1.187,1.914-2.118,3.967-2.921,6.175
		c-0.425,1.105-0.723,2.274-0.895,3.482c-0.383,1.229-0.381,2.47-0.621,3.857c-0.835-1.109-1.343-2.404-1.777-3.752
		c-0.29-1.36-0.439-2.772-0.423-4.2c0.01-2.873,0.96-5.707,2.49-8.16C816.365,477.002,818.561,474.899,821.211,473.68z
		 M801.421,436.343c3.602-3.602,9.442-3.602,13.044,0c3.602,3.602,3.602,9.442,0,13.044s-9.442,3.602-13.044,0
		S797.82,439.945,801.421,436.343z M792.21,499.805c7.313,0,11.731,5.927,11.731,13.24c0,5.818-2.419,12.59-5.054,18.264
		c5.718-2.671,12.561-5.118,18.46-5.118c7.313,0,12.98,4.548,12.98,11.861s-5.927,11.731-13.24,11.731
		c-5.818,0-12.59-2.411-18.264-5.053c2.671,5.717,5.118,12.568,5.118,18.459c0,7.313-4.548,12.979-11.861,12.979
		c-7.313,0-11.739-5.927-11.739-13.24c0-5.819,2.418-12.59,5.061-18.265c-5.724,2.671-12.568,5.118-18.459,5.118
		c-7.313,0-12.98-4.548-12.98-11.861s5.927-11.731,13.24-11.731c5.812,0,12.59,2.411,18.264,5.054
		c-2.671-5.718-5.126-12.562-5.126-18.46C780.341,505.472,784.897,499.805,792.21,499.805z M796.473,627.583
		c4.824,6.56,10.102,15.216,13.027,20.169c-0.265,0.184-0.524,0.375-0.778,0.572c-3.819-4.245-10.448-11.795-15.203-18.262
		c-4.036-5.489-6.725-10.359-5.761-11.069C788.716,618.289,792.437,622.094,796.473,627.583z M762.35,468.765
		c2.102,0.057,4.161,0.606,6.174,1.373c1.972,0.875,3.906,2.002,5.391,3.668c0.735,0.835,1.401,1.721,1.976,2.647
		c0.442,1.045,0.914,2.021,0.994,3.165c-1.004-0.528-1.786-1.111-2.725-1.501c-0.806-0.509-1.645-0.937-2.504-1.296
		c-1.706-0.721-3.3-1.512-5.005-2.16c-1.668-0.758-3.436-1.358-5.2-2.255c-1.779-0.842-3.631-1.686-5.396-3.056
		C758.201,468.737,760.26,468.654,762.35,468.765z M731.491,477.841c4.919-0.46,9.97,0.126,14.789,1.564
		c4.797,1.548,9.349,4.004,12.988,7.485c1.81,1.741,3.435,3.654,4.82,5.708c1.241,2.159,2.369,4.361,2.903,6.752
		c-1.527-1.894-2.996-3.713-4.763-5.233c-1.623-1.627-3.415-3.057-5.314-4.287c-3.786-2.458-7.81-4.474-12.087-5.751
		c-4.264-1.389-8.748-2.049-13.329-2.487c-4.597-0.38-9.274-0.25-14.124-0.137C721.769,479.373,726.578,478.243,731.491,477.841z
		 M698.507,497.632c6.855-2.929,14.478-4.029,21.964-3.483c7.47,0.653,14.775,2.909,21.173,6.634c3.194,1.865,6.26,3.937,8.988,6.37
		c2.736,2.439,5.234,5.106,7.295,8.092c-2.859-2.215-5.716-4.313-8.732-6.169c-2.997-1.844-6.048-3.572-9.247-4.929
		c-6.382-2.719-13.057-4.622-19.872-5.119c-6.789-0.605-13.677,0.241-20.306,2.135c-6.626,1.963-12.89,5.241-18.562,9.71
		C685.435,504.97,691.66,500.483,698.507,497.632z M642.898,569.015c0.909-6.701,8.744-10.165,15.506-10.243
		c7.257-0.083,14.52,2.307,20.31,6.682c-8.311-6.281-22.432-17.59-15.612-29.31c7.287-12.521,35.095,0.986,42.681,10.397
		c-4.241-6.265-6.217-14.043-5.426-21.572c0.31-2.948,1.307-6.221,3.969-7.522c1.442-0.704,3.126-0.689,4.721-0.514
		c16.721,1.832,22.459,14.844,29.706,27.595c1.206,2.122,2.407,4.254,3.586,6.399c4.684,8.523,8.723,17.179,11.828,26.388
		c1.368,4.054,3.063,8.106,4.423,12.221c1.224,3.706,1.401,9.528,3.312,12.79c-12.191-20.802-24.613-41.899-42.068-58.532
		c10.736,19.107,19.13,39.528,24.934,60.661c-12.145-16.503-27.751-30.446-45.512-40.663c-2.449-1.409-5.27-2.792-7.99-2.025
		c16.337,16.395,33.082,33.397,41.785,54.844c-13.46-14.322-31.331-24.44-50.537-28.614c17.738,13.082,34.132,27.986,48.841,44.4
		c-20.724-15.914-47.138-18.318-72.4-15.721c-3.085,0.317-6.323,0.665-9.185-0.528c-6.843-2.853-7.333-13.271-2.537-18.925
		c4.796-5.654,12.609-7.577,19.942-8.668c-4.898-2.738-10.574-3.801-15.553-6.388C646.646,579.577,642.144,574.576,642.898,569.015z
		 M681.091,642.171c-1.872,1.873-4.909,1.873-6.782,0c-1.872-1.873-1.872-4.909,0-6.782c1.873-1.873,4.909-1.873,6.782,0
		C682.964,637.262,682.964,640.298,681.091,642.171z M552.181,549.81c1.344-1.286,2.889-2.41,4.564-3.283
		c5.807-3.027,12.564-3.508,19.104-3.836c18.949-0.951,38.995-2.547,57.173,3.646c-19.504,3.186-33.708,6.158-50.046,10.381
		c15.09-1.428,30.924,1.252,47.863,6.058c-18.957,8.166-37.915,16.332-56.872,24.498c17.676,1.713,35.425-1.395,52.911-4.492
		c-14.944,11.91-35.339,16.762-47.569,31.445c15.203-4.956,30.406-9.912,45.609-14.868c-9.836,6.424-19.672,12.847-29.508,19.271
		c-5.83,3.808-11.734,7.679-16.371,12.875c11.597-3.182,22.923-7.354,33.814-12.455c5.284-2.475,10.75-5.233,16.582-5.031
		c-15.967,9.4-31.376,19.451-47.12,29.14c-6.513,4.008-15.711,7.368-21.082,1.925c-3.014-3.054-3.438-7.849-2.76-12.086
		c1.663-10.382,9.246-19.604,19.112-23.24c-4.712,0.253-9.423,0.508-14.135,0.761c-2.653,0.143-5.424,0.265-7.843-0.834
		c-5.53-2.512-6.545-10.485-3.621-15.808c2.923-5.323,8.453-8.595,13.725-11.611c3.647-2.087,7.295-4.174,10.943-6.261
		c-7.834-1.315-15.517-3.532-22.848-6.592C544.032,565.331,545.912,555.808,552.181,549.81z M559.612,682.877
		c4.56-1.773,9.262-3.182,14.047-4.204c3.912-0.835,9.173-0.408,12.815-1.786c-7.038,2.663-13.51,6.816-18.863,12.105
		c8.65-2.715,17.57-4.57,26.585-5.531c-9.021,4.291-17.655,9.395-25.764,15.229c10.857-3.583,22.259-7.213,33.526-5.265
		c-9.012,3.703-17.652,8.769-24.414,15.865c-6.007,6.304-10.588,13.812-14.861,21.399c-3.967,7.047-10.094,2.735-7.77-4.05
		c1.469-4.29,4.075-8.185,7.479-11.181c-4.135,3.64-12.986,9.341-18.673,10.178c-4.894,0.72-9.098-2.012-6.642-7.229
		c2.912-6.184,12.727-15.482,19.179-17.618c-4.674,1.548-9.525,2.561-14.429,3.015c-2.229,0.206-5.238,0.218-6.503-2.021
		C531.056,694.226,554.85,684.729,559.612,682.877z M569.648,790.545c2.454,2.448,5.088,5.334,4.922,8.796
		c-0.252,5.279-7.264,7.947-12.161,5.959c-4.896-1.988-7.973-6.776-10.73-11.284c0.331,9.722-3.114,19.499-12.99,10.013
		c-4.592-4.409-7.918-12.878-11.418-18.175c-0.728,3.532-1.044,13.547-4.435,15.611c-3.864,2.351-11.107-4.767-13.387-7.257
		c-3.687-4.026-6.572-9.26-6.515-14.85c0.103-10.055,8.801-22.226,15.361-29.174c-5.249,12.394-6.785,26.334-4.362,39.574
		c2.885-12.837,9.261-24.87,18.263-34.465c-2.107,13.37-0.095,27.361,5.697,39.595c0.052-14.303,2.07-28.598,5.98-42.356
		c2.661,15.201,8.277,29.878,16.444,42.971c-3.331-13.31-5.534-26.902-6.579-40.583c4.655,11.294,12.865,21.092,23.171,27.652
		c-7.539-9.68-12.538-21.321-14.366-33.454c0.871,5.782,5.545,12.571,8.767,17.31c4.312,6.344,7.132,5.258,13.129,8.138
		C597.784,780.976,579.764,795.377,569.648,790.545z M623.682,812.104c-11.177-1.004-15.159-13.194-14.216-24.333
		c2.049-24.232,11.796-35.093,16.129-41.03c-3.191,5.975-8.008,15.483-11.225,36.202c-1.488,9.599,2.262,18.751,5.792,18.296
		c7.59-0.985,5.926-9.759,4.785-17.135c-3.699-23.902-1.635-28.5,0.229-35.248l1.454-3.521c0,0-5.349,18.98,6.096,42.397
		C637.616,797.726,634.853,813.113,623.682,812.104z M615.578,743.053c-9.825,13.704-32.344,21.072-39.025,5.441
		c-6.691-15.637,6.715-29.71,22.256-36.454c33.807-14.677,55.306-9.475,66.341-7.958c-10.267,0.035-26.415,0.438-56.374,11.033
		c-13.878,4.912-23.397,16.492-20.252,20.875c6.769,9.42,17.282,0.896,26.303-5.926c29.238-22.111,36.856-22.66,47.201-25.021
		l5.743-0.589C667.772,704.455,638.601,710.953,615.578,743.053z M636.823,682.534c-16.799-1.465-34.619-17.079-24.579-30.797
		c10.04-13.729,28.981-9.372,42.707,0.559c29.863,21.599,48.193,61.67,52.515,71.936c-5.265-8.814-25.688-41.424-50.078-61.794
		c-11.301-9.434-26.116-11.718-28.284-6.777c-4.653,10.626,8.04,15.323,18.509,19.606c33.928,13.878,54.869,41.207,59.975,49.226
		v0.013c0.6,1.403,0.894,2.172,0.894,2.172S676.176,685.972,636.823,682.534z M702.228,678.273
		c-10.778-12.969-12.219-36.618,4.592-39.134c16.82-2.524,27.05,14.002,29.65,30.742c5.661,36.419-9.918,77.636-14.172,87.931
		c2.559-9.943,11.364-47.399,8.679-79.063c-1.246-14.669-10.047-26.804-15.083-24.868c-10.824,4.169-5.232,16.495-0.91,26.948
		c14.008,33.875,9.312,67.992,7.206,77.263c-0.575,1.413-0.915,2.164-0.915,2.164S727.471,708.657,702.228,678.273z
		 M770.529,835.655c-2.152,0.676-4.328,1.322-6.545,1.906c-4.435,1.154-9.104,1.58-13.804,1.258
		c-4.709-0.322-9.462-1.432-13.69-3.735c-4.217-2.189-8.09-5.356-10.226-9.56c4.222,1.974,8.144,3.384,12.203,4.294
		c4.065,0.805,8.091,1.401,12.206,1.676c4.137,0.276,8.34,0.256,12.698,0.45c2.182,0.106,4.39,0.146,6.612,0.151
		c2.262,0.27,4.503,0.256,6.823,0.71C774.763,833.993,772.639,834.714,770.529,835.655z M783.14,804.71
		c-2.208,1.903-4.667,3.556-7.285,4.944c-5.266,2.769-11.252,3.921-17.169,4.001c-5.893-0.09-11.718-1.156-17.034-3.335
		c-5.336-2.096-10.319-4.856-14.655-8.566c5.618,0.966,10.895,2.29,16.163,3.147c5.275,0.772,10.409,1.42,15.528,1.413
		c5.081-0.008,10.12-0.693,15.112-1.922c2.505-0.612,4.971-1.489,7.324-2.665c2.512-0.962,4.767-2.422,7.2-3.93
		C787.125,800.424,785.188,802.595,783.14,804.71z M800.862,742.536c-0.677,5.073-2.195,10.056-4.361,14.775
		c-2.171,4.724-5.232,9.041-8.843,12.843c-3.625,3.826-7.867,6.963-12.389,9.568c-4.562,2.539-9.43,4.459-14.43,5.754
		c-4.997,1.308-10.13,2.005-15.244,2.005c-5.104,0.026-10.186-0.332-15.186-1.61c-4.937-1.276-9.847-3.731-12.958-7.678
		c4.151,2.787,8.869,3.841,13.554,4.22c4.7,0.34,9.512,0.045,14.199-0.545c4.689-0.645,9.287-1.647,13.734-3.044
		c4.448-1.385,8.748-3.182,12.729-5.5c8.117-4.416,14.838-10.894,19.876-18.726c2.505-3.915,4.406-8.247,5.788-12.774
		c1.394-4.561,2.073-9.332,2.213-14.302C801.059,732.286,801.249,737.426,800.862,742.536z M759.949,721.203
		c3.602-3.602,9.442-3.602,13.044,0c3.602,3.602,3.602,9.442,0,13.043c-3.602,3.602-9.442,3.602-13.044,0
		C756.347,730.645,756.347,724.806,759.949,721.203z M860.076,656.135c-5.09,2.002-8.605,2.406-14.459,2.631
		c-2.353,0.242-4.799,0.301-7.242,0.235l-0.018,0c-5.315-0.145-10.607-0.885-14.852-1.672c0.004-0.017,0.005-0.034,0.008-0.051
		c-0.046,0.219-0.098,0.438-0.159,0.654c0.022-0.073,0.048-0.144,0.069-0.217c5.584,1.19,15.385,3.402,23.033,5.839
		c6.492,2.068,11.53,4.428,11.167,5.568c-0.361,1.133-5.607,0.242-12.099-1.827c-7.759-2.472-17.117-6.372-22.394-8.66
		c0.047-0.137,0.088-0.276,0.132-0.414c-0.081,0.251-0.17,0.5-0.273,0.745l0.013-0.026c4.919,2.328,11.182,5.71,16.467,9.838
		l-0.007-0.024c6.921,4.752,10.686,9.629,12.635,12.617c2.551,3.912,1.966,7.567-0.747,10.099c2.029,3.88,1.094,8.666-2.387,11.195
		c-3.49,2.536-8.342,1.938-11.405-1.211c-3.217,1.651-6.765,0.964-9.633-2.52c-3.461-4.204-4.935-7.414-6.944-12.868
		c-3.059-6.888-4.666-15.273-5.494-21.542c0.064-0.007,0.125-0.022,0.189-0.029c-0.328,0.041-0.656,0.066-0.986,0.071
		c0.136-0.001,0.272,0.002,0.407-0.002c0.594,5.678,1.518,15.683,1.565,23.71c0.039,6.813-0.648,12.334-1.845,12.341
		c-1.189,0.007-1.963-5.258-2.001-12.071c-0.047-8.143,0.77-18.248,1.316-23.975c0.102,0.003,0.203-0.002,0.305-0.002
		c-0.224-0.002-0.447-0.013-0.67-0.032c0.012,0.001,0.024,0.004,0.037,0.005c-0.69,5.399-1.97,12.398-4.261,18.696l0.012-0.008
		c-2.38,8.051-5.854,13.139-8.095,15.916c-2.932,3.635-6.589,4.208-9.836,2.41c-3.063,3.128-7.904,3.719-11.385,1.19
		c-3.49-2.536-4.421-7.335-2.372-11.222c-2.565-2.55-3.007-6.136-0.581-9.941c2.943-4.613,5.55-7.006,10.157-10.632
		c1.755-1.572,3.714-3.018,5.697-4.429c0.012-0.008,0.022-0.015,0.033-0.024c4.386-3.007,9.101-5.518,12.998-7.375
		c0.026,0.059,0.06,0.115,0.088,0.173c-0.166-0.355-0.312-0.716-0.43-1.084c0.06,0.183,0.117,0.367,0.182,0.549
		c-5.217,2.32-14.446,6.291-22.066,8.815c-6.468,2.143-11.93,3.196-12.307,2.058c-0.374-1.129,4.394-3.491,10.861-5.634
		c7.73-2.561,17.593-4.906,23.208-6.157c0.013,0.045,0.03,0.089,0.044,0.134c-0.062-0.213-0.111-0.429-0.158-0.646
		c0.014,0.063,0.018,0.127,0.032,0.19c-5.346,1.012-12.396,1.956-19.095,1.724l0.015,0.012c-8.392,0.224-14.305-1.508-17.639-2.78
		c-4.363-1.666-6.039-4.966-5.331-8.61c-3.922-1.947-5.979-6.368-4.649-10.459c1.333-4.104,5.61-6.472,9.939-5.724
		c1.633-3.227,4.907-4.757,9.275-3.624c5.284,1.369,8.365,3.106,13.217,6.351c2.055,1.192,4.077,2.588,6.023,4.084l0.016,0.012
		c4.214,3.242,8.059,6.951,11.028,10.079c-0.078,0.069-0.146,0.148-0.22,0.221c0.56-0.539,1.172-0.989,1.818-1.357
		c-0.08,0.045-0.164,0.08-0.243,0.128c-2.611-4.773-5.689-11.185-7.538-17.626l-0.006,0.016c-2.806-7.913-2.986-14.071-2.806-17.634
		c0.236-4.664,2.857-7.278,6.541-7.731c0.639-4.331,4.208-7.654,8.511-7.654c4.314,0,7.888,3.335,8.515,7.684
		c3.574,0.556,6.041,3.196,6.313,7.701c0.331,5.458-0.371,8.926-1.964,14.561c-0.496,2.301-1.192,4.634-2.005,6.927
		c-0.006,0.019-0.012,0.034-0.017,0.053c-1.781,5.009-4.121,9.81-6.178,13.605c-0.059-0.033-0.121-0.059-0.18-0.091
		c0.21,0.115,0.417,0.232,0.619,0.365c-0.034-0.023-0.067-0.048-0.101-0.072c2.857-4.943,7.99-13.58,12.67-20.102
		c3.973-5.535,7.774-9.597,8.746-8.899c0.966,0.694-1.502,5.407-5.475,10.942c-4.749,6.615-11.349,14.31-15.157,18.622
		c-0.209-0.159-0.424-0.31-0.64-0.46c0.346,0.231,0.674,0.496,0.994,0.779c-0.037-0.033-0.069-0.07-0.107-0.103
		c3.736-3.961,8.886-8.871,14.443-12.622l-0.02-0.001c6.658-5.114,12.459-7.188,15.904-8.118c4.508-1.217,7.805,0.469,9.374,3.832
		c4.317-0.731,8.58,1.638,9.909,5.729c1.334,4.104-0.734,8.533-4.676,10.473C866.025,651.322,864.276,654.484,860.076,656.135z
		 M897.071,852.287c-2.222,0.216-4.471,0.352-6.748,0.378c-4.554,0.036-9.153-0.857-13.494-2.553
		c-4.352-1.701-8.453-4.242-11.637-7.735c-3.211-3.384-5.755-7.556-6.394-12.13c3.327,3.13,6.509,5.682,9.972,7.788
		c3.501,2.01,7.017,3.793,10.724,5.234c3.727,1.449,7.602,2.566,11.613,3.799c2.007,0.626,4.07,1.162,6.166,1.622
		c2.086,0.729,4.219,1.131,6.385,1.949C901.498,851.487,899.305,851.801,897.071,852.287z M920.984,832.468
		c-4.525,0.899-9.193,1.255-13.876,1.059c-9.379-0.404-18.68-3.604-26.588-8.947c-7.818-5.472-14.142-13.003-17.88-21.613
		c-3.812-8.524-5.444-18.057-3.866-26.997c1.474,8.897,4.412,17.133,8.852,24.391c4.51,7.176,10.165,13.541,17.051,18.167
		c6.794,4.759,14.761,7.756,23.077,9.385c4.168,0.823,8.473,1.164,12.793,0.979c4.364,0.078,8.709-0.613,13.15-1.455
		C929.836,829.84,925.463,831.305,920.984,832.468z M957.806,796.618c-2.603,2.076-5.52,3.802-8.653,5.086
		c-6.248,2.562-13.335,3.166-20.114,2.29c-6.808-0.834-13.336-3.266-19.231-6.609c-5.907-3.351-11.238-7.643-15.9-12.58
		c-4.547-5.033-8.467-10.688-11.251-16.911c-2.811-6.19-4.575-12.916-4.864-19.705c-0.39-6.764,0.536-13.549,2.669-19.864
		c2.122-6.317,5.626-12.12,10.144-16.763c-6.643,11.121-8.974,23.984-7.214,36.083c1.799,12.065,7.599,23.294,15.902,32.17
		c8.247,8.897,18.944,15.837,30.712,18.61c5.882,1.403,12.054,1.319,18.03-0.146c2.986-0.732,5.931-1.777,8.671-3.294
		c2.73-1.533,5.279-3.45,7.59-5.731C962.644,792.05,960.395,794.533,957.806,796.618z M976.466,760.105
		c-1.873,1.873-4.909,1.873-6.782,0c-1.872-1.873-1.872-4.909,0-6.782c1.873-1.873,4.909-1.873,6.782,0
		C978.339,755.196,978.339,758.232,976.466,760.105z M952.141,750.225c0,0,3.267-42.612,24.277-69.989
		c8.367-10.903,22.123-18.77,33.179-10.605c11.056,8.166,1.455,18.798-11.296,23.926
		C968.413,705.577,952.141,750.225,952.141,750.225z"/>
	<path fill="darkgoldenrod" d="M817.807,663.969c0.012-0.004,0.022-0.01,0.034-0.014c-0.169,0.065-0.34,0.124-0.512,0.179
		c0.019-0.006,0.039-0.009,0.057-0.016c1.148,4.03,3.477,11.95,5.187,16.385c1.338,3.452,2.94,6.252,3.865,6.458
		c0.916,0.198,0.388-2.486-0.942-5.938C823.761,676.547,819.772,668.074,817.807,663.969z"/>
	<path fill="darkgoldenrod" d="M820.334,662.524c0.096-0.081,0.173-0.18,0.266-0.264c-0.445,0.39-0.912,0.744-1.407,1.035
		c0.118-0.068,0.241-0.129,0.356-0.201c2.899,4.972,8.127,13.651,12.908,20.242c4.005,5.508,7.705,9.34,8.671,8.638
		s-1.693-5.591-5.698-11.1C830.706,674.375,824.124,666.794,820.334,662.524z"/>
	<path fill="darkgoldenrod" d="M814.536,610.198c-1.198,0-1.916,5.517-1.916,12.33c0,8.027,0.867,18.037,1.429,23.719
		c-0.114,0.008-0.228,0.027-0.343,0.038c0.542-0.05,1.088-0.049,1.63-0.002c-0.107-0.01-0.213-0.029-0.321-0.036
		c0.579-5.723,1.454-15.823,1.454-23.966C816.469,615.467,815.726,610.198,814.536,610.198z"/>
	<path fill="darkgoldenrod" d="M822.008,660.712c-0.122,0.171-0.243,0.343-0.378,0.508c3.147,3.064,9.968,9.637,13.8,12.759
		c2.866,2.337,5.153,3.568,5.236,2.626c0.099-0.933-2.172-3.403-5.046-5.731c-3.692-3.014-10.439-7.714-13.734-9.976
		C821.931,660.839,821.965,660.772,822.008,660.712z"/>
	<path fill="darkgoldenrod" d="M817.369,646.684c1.437-3.931,4.212-11.702,5.434-16.302c0.949-3.576,1.296-6.78,0.669-7.491
		c-0.627-0.702-1.776,1.776-2.725,5.352c-1.23,4.642-2.982,13.841-3.807,18.318c-0.103-0.028-0.208-0.043-0.312-0.068
		c0.37,0.086,0.735,0.194,1.093,0.326C817.603,646.775,817.488,646.723,817.369,646.684z"/>
	<path fill="darkgoldenrod" d="M845.217,643.414c-7.631,2.486-16.88,6.401-22.117,8.688c-0.014-0.036-0.034-0.072-0.049-0.109
		c0.171,0.427,0.3,0.865,0.405,1.308c-0.022-0.091-0.034-0.184-0.058-0.274c5.624-1.222,15.501-3.51,23.248-6.029
		c6.474-2.106,11.256-4.435,10.893-5.566C857.167,640.292,851.7,641.308,845.217,643.414z"/>
	<path fill="darkgoldenrod" d="M842.293,652.911c-4.79,0.264-14.08,1.445-18.598,2.04c-0.002-0.042-0.01-0.083-0.012-0.125
		c0.015,0.233,0.024,0.465,0.022,0.699c0.001-0.043,0.007-0.086,0.007-0.128c4.188,0.156,12.429,0.388,17.187,0.132
		c3.691-0.199,6.846-0.859,7.325-1.676C848.702,653.035,845.993,652.713,842.293,652.911z"/>
	<path fill="darkgoldenrod" d="M842.781,637.112c-0.859-0.38-3.906,1.024-7.012,3.031c-4.005,2.585-10.562,7.54-13.734,9.985
		c-0.035-0.05-0.078-0.094-0.114-0.142c0.183,0.249,0.353,0.505,0.508,0.768c-0.056-0.095-0.104-0.194-0.164-0.287
		c3.889-2.04,12.239-6.508,16.401-9.184C841.773,639.284,843.647,637.484,842.781,637.112z"/>
</g>
</svg>
